amiritypewriter-bold.sfdir
StartChar: quotedbl
Encoding: 34 34 2
Width: 872
VWidth: 0
GlyphClass: 2
Flags: W
LayerCount: 2
Fore
SplineSet
708 1216 m 1,0,-1
 583 1217 l 1,1,-1
 583 651 l 1,2,-1
 708 651 l 1,3,-1
 708 1216 l 1,0,-1
284 1221 m 1,4,-1
 159 1222 l 1,5,-1
 159 656 l 1,6,-1
 284 655 l 1,7,-1
 284 1221 l 1,4,-1
EndSplineSet
EndChar
StartChar: parenleft
Encoding: 40 40 3
Width: 872
VWidth: 0
GlyphClass: 2
Flags: W
LayerCount: 2
Fore
SplineSet
664 1856 m 1,0,-1
 562 1929 l 1,1,2
 -147 944 -147 944 563 6 c 1,3,-1
 663 81 l 1,4,5
 9 946 9 946 664 1856 c 1,0,-1
EndSplineSet
EndChar
StartChar: parenright
Encoding: 41 41 4
Width: 872
VWidth: 0
GlyphClass: 2
Flags: W
LayerCount: 2
Fore
SplineSet
225 77 m 1,0,1
 868 995 868 995 202 1852 c 1,2,-1
 301 1929 l 1,3,4
 1024 1000 1024 1000 328 6 c 1,5,-1
 225 77 l 1,0,1
EndSplineSet
EndChar
StartChar: slash
Encoding: 47 47 27
Width: 872
VWidth: 0
GlyphClass: 2
Flags: W
LayerCount: 2
Fore
SplineSet
799 878 m 1,0,-1
 181 -158 l 1,1,-1
 73 -94 l 1,2,-1
 691 942 l 1,3,-1
 799 878 l 1,0,-1
EndSplineSet
EndChar
StartChar: colon
Encoding: 58 58 26
Width: 872
VWidth: 0
GlyphClass: 2
Flags: W
LayerCount: 2
Fore
SplineSet
342 775.5 m 128,-1,1
 342 679 342 679 439 679 c 128,-1,2
 536 679 536 679 536 776 c 128,-1,3
 536 873 536 873 439 872.5 c 128,-1,0
 342 872 342 872 342 775.5 c 128,-1,1
433 155 m 128,-1,5
 530 155 530 155 530 251.5 c 128,-1,6
 530 348 530 348 433 348 c 128,-1,7
 336 348 336 348 336 251.5 c 128,-1,4
 336 155 336 155 433 155 c 128,-1,5
EndSplineSet
EndChar
StartChar: equal
Encoding: 61 61 42
Width: 872
VWidth: 0
GlyphClass: 2
Flags: W
LayerCount: 2
Fore
SplineSet
85 584 m 1,0,-1
 85 458 l 1,1,-1
 780 458 l 1,2,-1
 780 583 l 1,3,-1
 85 584 l 1,0,-1
85 521 m 1,4,-1
 780 521 l 1,5,-1
92 257 m 1,6,-1
 92 132 l 1,7,-1
 787 131 l 1,8,-1
 787 257 l 1,9,-1
 92 257 l 1,6,-1
92 194 m 1,10,-1
 787 194 l 1,11,-1
EndSplineSet
EndChar
StartChar: multiply
Encoding: 215 215 41
Width: 872
VWidth: 0
GlyphClass: 2
Flags: W
LayerCount: 2
Fore
SplineSet
790 703 m 1,0,-1
 523.493095045 439.506904955 l 1,1,-1
 787 176 l 1,2,-1
 698 88 l 1,3,-1
 434.704774579 351.722652734 l 1,4,-1
 171 91 l 1,5,-1
 83 180 l 1,6,-1
 346.274117655 440.29686592 l 1,7,-1
 82 705 l 1,8,-1
 170 793 l 1,9,-1
 434.990251828 528.009748172 l 1,10,-1
 702 792 l 1,11,-1
 790 703 l 1,0,-1
EndSplineSet
EndChar
StartChar: uni060C
Encoding: 1548 1548 17
Width: 872
VWidth: 0
GlyphClass: 2
Flags: W
LayerCount: 2
Fore
SplineSet
484 595 m 1,0,1
 325 452 325 452 308 308 c 0,2,3
 295 191 295 191 396 152.5 c 128,-1,4
 497 114 497 114 551 216 c 1,5,6
 474 208 474 208 464 281 c 0,7,8
 451 367 451 367 539 376 c 0,9,10
 554 378 554 378 570 375 c 0,11,12
 674 362 674 362 634 195 c 1,13,14
 614 87 614 87 512.5 43.5 c 128,-1,15
 411 -0 411 -0 318 61 c 128,-1,16
 225 122 225 122 227 272 c 0,17,18
 230 461 230 461 444 634 c 1,19,20
 481 665 481 665 500.5 648 c 128,-1,21
 520 631 520 631 484 595 c 1,0,1
EndSplineSet
EndChar
StartChar: uni061F
Encoding: 1567 1567 1
Width: 872
VWidth: 0
GlyphClass: 2
Flags: W
LayerCount: 2
Fore
SplineSet
611 45 m 128,-1,1
 611 -28 611 -28 538.5 -28 c 128,-1,2
 466 -28 466 -28 466 45 c 128,-1,3
 466 118 466 118 538.5 118 c 128,-1,0
 611 118 611 118 611 45 c 128,-1,1
467 324 m 1,4,-1
 593 324 l 1,5,-1
 593 678 l 1,6,-1
 542 688 l 1,7,8
 146 767 146 767 215 1060 c 1,9,10
 272 1236 272 1236 458 1235.5 c 0,11,12
 605.492896265 1235.10351372 605.492896265 1235.10351372 652.376915441 1114.91958315 c 1,13,14
 604 1095.1482493 604 1095.1482493 604 1027 c 0,15,16
 604 931 604 931 700 931 c 128,-1,17
 796 931 796 931 796 1027 c 0,18,19
 794 1060 l 0,20,21
 751 1359 751 1359 464.5 1359 c 128,-1,22
 178 1359 178 1359 94 1091 c 1,23,24
 1 701 1 701 467 577 c 1,25,-1
 467 324 l 1,4,-1
EndSplineSet
EndChar
StartChar: uni064B
Encoding: 1611 1611 159
Width: 872
GlyphClass: 4
Flags: W
AnchorPoint: "TashkilAbove" 529 1640 mark 0
AnchorPoint: "arMarkMark" 529 1640 mark 0
LayerCount: 2
Fore
SplineSet
681 2085 m 2,0,1
 719 2111 719 2111 741 2104 c 128,-1,3
 763 2097 763 2097 749 2051 c 2,4,-1
 728 1987 l 2,5,6
 715 1950 715 1950 688 1933 c 2,7,-1
 330 1713 l 2,8,9
 307 1700 307 1700 286 1704 c 128,-1,11
 265 1708 265 1708 271 1747 c 2,12,-1
 277 1786 l 1,13,14
 284 1821 284 1821 318 1844 c 1,15,-1
 681 2085 l 2,0,1
673 2290 m 2,16,17
 706 2311 706 2311 728 2305 c 128,-1,19
 750 2299 750 2299 740 2256 c 2,20,-1
 725 2204 l 2,21,22
 713 2164 713 2164 675 2142 c 2,23,-1
 313 1931 l 2,24,25
 273 1908 273 1908 251 1917 c 0,26,27
 230 1926 230 1926 248 1970 c 1,28,-1
 266 2009 l 2,29,30
 280 2042 280 2042 304 2057 c 2,31,-1
 673 2290 l 2,16,17
EndSplineSet
EndChar
StartChar: uni064C
Encoding: 1612 1612 160
Width: 872
GlyphClass: 4
Flags: W
AnchorPoint: "TashkilAbove" 510 1640 mark 0
AnchorPoint: "arMarkMark" 510 1640 mark 0
LayerCount: 2
Fore
SplineSet
540 1978 m 1,0,1
 475 2028 475 2028 464.5 2061.5 c 128,-1,2
 454 2095 454 2095 473 2152 c 128,-1,3
 492 2209 492 2209 529.5 2247 c 128,-1,4
 567 2285 567 2285 608.5 2280 c 128,-1,5
 650 2275 650 2275 665 2227 c 0,6,7
 690 2144 690 2144 665 2051 c 1,8,9
 692 2035 692 2035 710.5 2022.5 c 128,-1,10
 729 2010 729 2010 726 1991 c 1,11,-1
 712 1924 l 1,12,13
 699 1873 699 1873 639 1909 c 0,14,15
 617 1923 617 1923 604 1933 c 1,16,17
 511 1775 511 1775 328 1722 c 0,18,19
 267 1704 267 1704 257 1748 c 1,20,21
 251 1789 251 1789 311 1808 c 0,22,23
 467 1855 467 1855 540 1978 c 1,0,1
588 2097 m 1,24,25
 587 2120 587 2120 576 2132.5 c 128,-1,26
 565 2145 565 2145 539 2132 c 1,27,28
 558 2114 558 2114 588 2097 c 1,24,25
433 2088 m 0,29,30
 459 2093 459 2093 460 2062 c 0,31,32
 460 2052 460 2052 457 2043 c 2,33,-1
 440 1990 l 2,34,35
 425 1943 425 1943 375 1957 c 1,36,37
 333 1972 333 1972 312.5 2027 c 128,-1,38
 292 2082 292 2082 310 2159.5 c 128,-1,39
 328 2237 328 2237 412 2328 c 0,40,41
 606 2541 606 2541 698 2497 c 1,42,43
 734 2478 734 2478 737 2432 c 0,44,45
 741 2369 741 2369 709 2335 c 0,46,47
 674 2298 674 2298 632 2337.5 c 128,-1,48
 590 2377 590 2377 522 2328 c 128,-1,49
 454 2279 454 2279 421 2228 c 128,-1,50
 388 2177 388 2177 386 2146.5 c 128,-1,51
 384 2116 384 2116 400 2101 c 128,-1,52
 416 2086 416 2086 433 2088 c 0,29,30
EndSplineSet
EndChar
StartChar: uni064E
Encoding: 1614 1614 161
Width: 872
GlyphClass: 4
Flags: W
AnchorPoint: "arMarkMark" 556 1640 mark 0
AnchorPoint: "TashkilAbove" 556 1640 mark 0
LayerCount: 2
Fore
SplineSet
716 2105 m 2,0,1
 745 2122 745 2122 766 2115.5 c 128,-1,2
 787 2109 787 2109 775 2067 c 2,3,-1
 755 2000 l 2,4,5
 745 1969 745 1969 705 1943 c 1,6,-1
 305 1713 l 2,7,8
 289 1705 289 1705 278 1704 c 1,9,10
 249 1708 249 1708 247 1745 c 1,11,-1
 248 1780 l 1,12,13
 251 1811 251 1811 290 1839 c 1,14,-1
 716 2105 l 2,0,1
EndSplineSet
EndChar
StartChar: uni0652
Encoding: 1618 1618 164
Width: 872
GlyphClass: 4
Flags: W
AnchorPoint: "arMarkMark" 372 1640 mark 0
AnchorPoint: "TashkilAbove" 372 1640 mark 0
LayerCount: 2
Fore
SplineSet
457 1861 m 0,0,1
 516 1877 516 1877 455 1939 c 0,2,3
 411 1983 411 1983 347 1984 c 0,4,5
 269 1986 269 1986 266 1918 c 0,6,7
 265 1874 265 1874 300 1862 c 0,8,9
 371 1837 371 1837 457 1861 c 0,0,1
228 2022 m 0,10,11
 240 2044 240 2044 252 2060 c 0,12,13
 330 2163 330 2163 443 2088 c 0,14,15
 451 2083 451 2083 458 2077 c 0,16,17
 546 2009 546 2009 552 1913 c 1,18,19
 558 1795 558 1795 480 1739 c 1,20,21
 422 1700 422 1700 339 1706 c 0,22,23
 326 1707 326 1707 314 1708 c 0,24,25
 177 1730 177 1730 191 1892 c 0,26,27
 192 1908 192 1908 195 1925 c 0,28,29
 204 1979 204 1979 228 2022 c 0,10,11
EndSplineSet
EndChar
StartChar: uni0653
Encoding: 1619 1619 11
Width: 872
VWidth: 0
GlyphClass: 4
Flags: W
AnchorPoint: "arMarkAbove" 438 -23 mark 0
LayerCount: 2
Back
SplineSet
60.3056640625 2.4296875 m 1,0,1
 77.947265625 28.990234375 77.947265625 28.990234375 106.028320312 77.1357421875 c 0,2,3
 183.845703125 210.556640625 183.845703125 210.556640625 266.921875 186.516601562 c 1,4,5
 576.249023438 105.921875 576.249023438 105.921875 783.07421875 183.938476562 c 1,6,7
 810.408508301 198.149246216 810.408508301 198.149246216 807.791015625 165.78515625 c 0,8,9
 800.858581543 91.824508667 800.858581543 91.824508667 682.5 40.9990234375 c 0,10,11
 604.82043457 8.00451183319 604.82043457 8.00451183319 469.300476074 14.0798931122 c 128,-1,12
 333.780548096 20.1552734375 333.780548096 20.1552734375 223.374023438 56.111328125 c 0,13,14
 176.817886353 72.2226333618 176.817886353 72.2226333618 110.154296875 -28.3466796875 c 1,15,16
 85.7578125 -55.251953125 85.7578125 -55.251953125 66.8061523438 -41.5854492188 c 128,-1,17
 47.8544921875 -27.9189453125 47.8544921875 -27.9189453125 60.3056640625 2.4296875 c 1,0,1
EndSplineSet
Fore
SplineSet
50.5 -38 m 128,-1,1
 43 -23 43 -23 49.5 -7 c 128,-1,2
 56 9 56 9 74.5 38 c 128,-1,3
 93 67 93 67 106 90 c 128,-1,4
 119 113 119 113 128 127 c 0,5,6
 201 243 201 243 294 210 c 1,7,8
 506 158 506 158 672 185 c 0,9,10
 710 191 710 191 794 218 c 1,11,12
 809 222 809 222 814.5 212.5 c 128,-1,13
 820 203 820 203 818 183 c 0,14,15
 815 127 815 127 773.5 88.5 c 128,-1,16
 732 50 732 50 688 28 c 0,17,18
 644 6 644 6 512 1 c 0,19,20
 380 -4 380 -4 212 45 c 0,21,22
 202 49 202 49 184.5 41 c 128,-1,23
 167 33 167 33 157 23.5 c 128,-1,24
 147 14 147 14 130 -7.5 c 128,-1,25
 113 -29 113 -29 100.5 -41.5 c 128,-1,26
 88 -54 88 -54 73 -53.5 c 128,-1,0
 58 -53 58 -53 50.5 -38 c 128,-1,1
EndSplineSet
EndChar
StartChar: uni0654
Encoding: 1620 1620 100
Width: 872
VWidth: 0
GlyphClass: 4
Flags: W
AnchorPoint: "arMarkAbove" 456.498 0 mark 0
LayerCount: 2
Back
SplineSet
487.048828125 221.270507812 m 1,0,1
 406.34765625 278.809570312 406.34765625 278.809570312 360.881835938 224.44921875 c 1,2,3
 340.141601562 196.666992188 340.141601562 196.666992188 376.959960938 165.36328125 c 128,-1,4
 413.778320312 134.059570312 413.778320312 134.059570312 462.498046875 144 c 1,5,6
 515.5234375 167.30078125 515.5234375 167.30078125 593.279296875 210.4453125 c 1,7,8
 607.770507812 216.783203125 607.770507812 216.783203125 606.7265625 204.336914062 c 2,9,-1
 602.390625 125.66015625 l 2,10,11
 602.099609375 115.432617188 602.099609375 115.432617188 593.147460938 109.971679688 c 0,12,13
 492.545898438 59.0673828125 492.545898438 59.0673828125 276.19921875 -68.783203125 c 0,14,15
 266.459960938 -74.89453125 266.459960938 -74.89453125 265.608398438 -66.87890625 c 0,16,17
 260.267578125 19.0166015625 260.267578125 19.0166015625 325.212890625 63.6826171875 c 1,18,19
 250.297851562 116.243164062 250.297851562 116.243164062 269.255859375 186.934570312 c 1,20,21
 386.079101562 449.861328125 386.079101562 449.861328125 516.55078125 318.711914062 c 1,22,23
 529.981445312 307.665039062 529.981445312 307.665039062 530.935546875 294.732421875 c 1,24,25
 525.334960938 257.991210938 525.334960938 257.991210938 513.19921875 236.152832031 c 128,-1,26
 501.063476562 214.314453125 501.063476562 214.314453125 487.048828125 221.270507812 c 1,0,1
EndSplineSet
Fore
SplineSet
487 221 m 1,0,1
 406 279 406 279 361 224 c 1,2,3
 340 196 340 196 377 165 c 128,-1,4
 414 134 414 134 462 144 c 1,5,6
 515 167 515 167 593 210 c 1,7,8
 607 216 607 216 607 204 c 2,9,-1
 602 126 l 2,10,11
 602 116 602 116 593 110 c 0,12,13
 492 59 492 59 276 -69 c 0,14,15
 266 -75 266 -75 266 -67 c 0,16,17
 261 19 261 19 325 64 c 1,18,19
 250 117 250 117 269 187 c 1,20,21
 386 450 386 450 517 319 c 1,22,23
 530 308 530 308 531 295 c 1,24,25
 525 258 525 258 513 236 c 128,-1,26
 501 214 501 214 487 221 c 1,0,1
EndSplineSet
EndChar
StartChar: uni0658
Encoding: 1624 1624 166
Width: 872
GlyphClass: 4
Flags: W
AnchorPoint: "arMarkMark" 372 1640 mark 0
AnchorPoint: "TashkilAbove" 372 1640 mark 0
LayerCount: 2
Fore
SplineSet
289 2075 m 0,0,1
 309 2104 309 2104 331 2103 c 1,2,3
 360 2100 360 2100 354 2059 c 0,4,5
 335 1908 335 1908 444 1894 c 1,6,7
 475 1892 475 1892 500 1928 c 0,8,9
 528 1969 528 1969 552 1958 c 1,10,11
 574 1946 574 1946 561 1902 c 1,12,13
 502 1714 502 1714 375 1712 c 1,14,15
 233 1711 233 1711 221 1851 c 1,16,17
 214 1961 214 1961 289 2075 c 0,0,1
EndSplineSet
EndChar
StartChar: uni0660
Encoding: 1632 1632 29
Width: 872
VWidth: 0
GlyphClass: 2
Flags: W
LayerCount: 2
Back
SplineSet
442.833984375 649.709960938 m 1,0,-1
 599.630859375 483.9921875 l 1,1,-1
 427.994140625 318.142578125 l 1,2,-1
 272.369140625 481.487304688 l 1,3,-1
 442.833984375 649.709960938 l 1,0,-1
EndSplineSet
Fore
SplineSet
427 276 m 1,0,-1
 230 482 l 1,1,2
 337 587 337 587 444 693 c 1,3,4
 510 623 510 623 642 483 c 1,5,-1
 427 276 l 1,0,-1
EndSplineSet
EndChar
StartChar: uni0661
Encoding: 1633 1633 26
Width: 872
VWidth: 0
GlyphClass: 2
Flags: W
LayerCount: 2
Back
SplineSet
377.474609375 965.090820312 m 2,0,1
 387.103820801 990.300537109 387.103820801 990.300537109 399.125 958.381835938 c 0,2,3
 614.228881836 402.326385498 614.228881836 402.326385498 545 21 c 0,4,5
 536.609375 -25.6725120544 536.609375 -25.6725120544 520.5 -23.5 c 0,6,7
 503.238739014 -21.916015625 503.238739014 -21.916015625 500.5 15 c 0,8,9
 478.228881836 350.326385498 478.228881836 350.326385498 314.515625 764.421875 c 0,10,11
 307.138580322 780.947631836 307.138580322 780.947631836 315.306640625 802.33203125 c 2,12,-1
 377.474609375 965.090820312 l 2,0,1
EndSplineSet
Fore
SplineSet
490 5 m 0,0,1
 440 373 440 373 295 744 c 1,2,3
 289 765 289 765 336 887 c 0,4,5
 383 1009 383 1009 390 1011.5 c 128,-1,6
 397 1014 397 1014 404.5 1000 c 128,-1,7
 412 986 412 986 427 951 c 0,8,9
 549 650 549 650 568 279 c 1,10,11
 575 114 575 114 543 -8 c 1,12,13
 530 -43 530 -43 512.5 -37 c 128,-1,14
 495 -31 495 -31 490 5 c 0,0,1
EndSplineSet
EndChar
StartChar: uni0662
Encoding: 1634 1634 34
Width: 872
VWidth: 0
GlyphClass: 2
Flags: W
LayerCount: 2
Back
SplineSet
650.397460938 965.120117188 m 0,0,1
 659.454101562 982.3515625 659.454101562 982.3515625 670.25 982.799316406 c 128,-1,2
 681.045898438 983.247070312 681.045898438 983.247070312 680.983398438 957.13671875 c 1,3,4
 661.643554688 722.600585938 661.643554688 722.600585938 420.006835938 702.385742188 c 1,5,6
 586.301757812 357.159179688 586.301757812 357.159179688 560.412109375 38.2255859375 c 1,7,8
 556.403320312 -31.548828125 556.403320312 -31.548828125 530.8515625 -33.1010742188 c 128,-1,9
 505.299804688 -34.6533203125 505.299804688 -34.6533203125 498.610351562 38.1962890625 c 1,10,11
 429.8828125 404.545898438 429.8828125 404.545898438 195.9296875 797.864257812 c 0,12,13
 189.131835938 808.965820312 189.131835938 808.965820312 191.740234375 823.088867188 c 2,14,-1
 217.84375 975.725585938 l 1,15,16
 220.665039062 985.668945312 220.665039062 985.668945312 229.459960938 976.12109375 c 0,17,18
 339.518554688 851.896484375 339.518554688 851.896484375 446.842773438 854.861328125 c 1,19,20
 594.422851562 861.872070312 594.422851562 861.872070312 650.397460938 965.120117188 c 0,0,1
EndSplineSet
Fore
SplineSet
498 -17 m 0,0,1
 495 -7 495 -7 484 42 c 128,-1,2
 473 91 473 91 465 116 c 1,3,4
 398 396 398 396 186 756 c 0,5,6
 174 776 174 776 173.5 779 c 128,-1,7
 173 782 173 782 171.5 787.5 c 128,-1,8
 170 793 170 793 171 796 c 128,-1,9
 172 799 172 799 172 807 c 1,10,-1
 202 985 l 1,11,12
 210 1022 210 1022 228 1010 c 0,13,14
 236 1004 236 1004 253 987 c 0,15,16
 322 912 322 912 398 888 c 128,-1,17
 474 864 474 864 546 896 c 0,18,19
 617 927 617 927 638 973 c 0,20,21
 651 999 651 999 664 1001 c 0,22,23
 694 1005 694 1005 686.5 905 c 128,-1,24
 679 805 679 805 617 746 c 128,-1,25
 555 687 555 687 437 682 c 1,26,27
 568 394 568 394 575 164 c 1,28,29
 577 -52 577 -52 528 -54 c 0,30,31
 508 -55 508 -55 498 -17 c 0,0,1
EndSplineSet
EndChar
StartChar: uni0663
Encoding: 1635 1635 31
Width: 872
VWidth: 0
GlyphClass: 2
Flags: W
LayerCount: 2
Back
SplineSet
477.592773438 935.134765625 m 0,0,1
 487.958984375 965.645507812 487.958984375 965.645507812 509.076171875 961.474121094 c 128,-1,2
 530.193359375 957.302734375 530.193359375 957.302734375 526.38671875 922.463867188 c 0,3,4
 526.188476562 920.069335938 526.188476562 920.069335938 523.469238281 902.2109375 c 128,-1,5
 520.75 884.352539062 520.75 884.352539062 522.138671875 875.984375 c 1,6,7
 530.564453125 849.967773438 530.564453125 849.967773438 570.72265625 836.103027344 c 128,-1,8
 610.880859375 822.23828125 610.880859375 822.23828125 653.603515625 841.212402344 c 128,-1,9
 696.326171875 860.186523438 696.326171875 860.186523438 706.884765625 917.190429688 c 0,10,11
 718.212890625 978.068359375 718.212890625 978.068359375 745.693359375 943.850585938 c 0,12,13
 755.340820312 931.836914062 755.340820312 931.836914062 752.1484375 910.598632812 c 1,14,15
 732.610351562 714.309570312 732.610351562 714.309570312 646.474609375 698.372070312 c 0,16,17
 538.94921875 678.47265625 538.94921875 678.47265625 479.174804688 752.05859375 c 1,18,19
 434.013671875 697.719726562 434.013671875 697.719726562 354.443359375 679.490234375 c 1,20,21
 508.0390625 366.549804688 508.0390625 366.549804688 487.509765625 38.240234375 c 1,22,23
 478.28515625 -36.4384765625 478.28515625 -36.4384765625 452.598632812 -34.478515625 c 128,-1,24
 426.912109375 -32.5185546875 426.912109375 -32.5185546875 424.565429688 38.240234375 c 1,25,26
 354.038085938 443.516601562 354.038085938 443.516601562 122.55859375 798.318359375 c 1,27,-1
 119.057617188 819.016601562 l 1,28,-1
 145.629882812 974.421875 l 1,29,-1
 145.915039062 975.166992188 l 1,30,-1
 157.24609375 974.802734375 l 1,31,32
 276.483398438 840.236328125 276.483398438 840.236328125 354.091796875 842.380859375 c 1,33,34
 446.693359375 842.149414062 446.693359375 842.149414062 477.592773438 935.134765625 c 0,0,1
EndSplineSet
Fore
SplineSet
453 -47 m 0,0,1
 429 -47 429 -47 422.5 -24.5 c 128,-1,2
 416 -2 416 -2 409 37 c 0,3,4
 402 77 402 77 396 97 c 1,5,6
 326 433 326 433 101 778 c 1,7,8
 94 797 94 797 99 823.5 c 128,-1,9
 104 850 104 850 113.5 907.5 c 128,-1,10
 123 965 123 965 129 992 c 1,11,-1
 160 989 l 1,12,13
 282 857 282 857 348 853 c 0,14,15
 414 848 414 848 457 904 c 0,16,17
 461 911 461 911 473 938 c 0,18,19
 503 1010 503 1010 546 968 c 1,20,21
 557 956 557 956 552 931 c 128,-1,22
 547 906 547 906 545 896 c 128,-1,23
 543 886 543 886 541.5 873 c 128,-1,24
 540 860 540 860 563 846.5 c 128,-1,25
 586 833 586 833 619 833.5 c 128,-1,26
 652 834 652 834 675 850 c 0,27,28
 698 866 698 866 705 921 c 1,29,30
 720 973 720 973 747 973 c 0,31,32
 774 973 774 973 781 939 c 0,33,34
 785 921 785 921 781 897 c 1,35,36
 754 676 754 676 638 666 c 1,37,38
 543 652 543 652 480 708 c 0,39,40
 479 710 479 710 477 707 c 0,41,42
 458 682 458 682 397 661 c 1,43,44
 522 392 522 392 499 68 c 1,45,46
 487 -48 487 -48 453 -47 c 0,0,1
EndSplineSet
EndChar
StartChar: uni0665
Encoding: 1637 1637 37
Width: 872
VWidth: 0
GlyphClass: 2
Flags: W
LayerCount: 2
Back
SplineSet
161.331054688 351.575195312 m 0,0,1
 165.470703125 735.53125 165.470703125 735.53125 304.713378906 901.916992188 c 128,-1,2
 443.956054688 1068.30273438 443.956054688 1068.30273438 579.579589844 912.48828125 c 128,-1,3
 715.203125 756.673828125 715.203125 756.673828125 710.559570312 358.298828125 c 0,4,5
 707.830078125 124.021484375 707.830078125 124.021484375 569.513183594 27.8686523438 c 128,-1,6
 431.196289062 -68.2841796875 431.196289062 -68.2841796875 295.023925781 26.6826171875 c 128,-1,7
 158.8515625 121.649414062 158.8515625 121.649414062 161.331054688 351.575195312 c 0,0,1
635.208007812 350.30078125 m 0,8,9
 638.3828125 610.091796875 638.3828125 610.091796875 539.1875 720.362304688 c 128,-1,10
 439.9921875 830.6328125 439.9921875 830.6328125 339.680664062 725.268554688 c 128,-1,11
 239.369140625 619.904296875 239.369140625 619.904296875 239.83203125 357.537109375 c 0,12,13
 240.018554688 248.044921875 240.018554688 248.044921875 338.278808594 203.599121094 c 128,-1,14
 436.5390625 159.153320312 436.5390625 159.153320312 535.23828125 202.607910156 c 128,-1,15
 633.9375 246.0625 633.9375 246.0625 635.208007812 350.30078125 c 0,8,9
EndSplineSet
Fore
SplineSet
734 271 m 1,0,1
 716 136 716 136 640.5 51 c 128,-1,2
 565 -34 565 -34 433 -31 c 128,-1,3
 301 -28 301 -28 234 39 c 0,4,5
 148 127 148 127 136 268 c 1,6,7
 125 373 125 373 146 567 c 1,8,9
 194 910 194 910 385 993 c 0,10,11
 467 1029 467 1029 536 980 c 1,12,13
 705 874 705 874 732 558 c 0,14,15
 746 391 746 391 734 271 c 1,0,1
610 272 m 1,16,17
 648 319 648 319 646 366 c 0,18,19
 643 454 643 454 635.5 512 c 128,-1,20
 628 570 628 570 603 627 c 1,21,22
 551 721 551 721 461 731 c 0,23,24
 314 746 314 746 254 585 c 0,25,26
 230 520 230 520 230 350 c 1,27,28
 231 299 231 299 282 256 c 1,29,30
 337 193 337 193 446 195 c 0,31,32
 493 196 493 196 538.5 215.5 c 128,-1,33
 584 235 584 235 610 272 c 1,16,17
EndSplineSet
EndChar
StartChar: uni0666
Encoding: 1638 1638 30
Width: 872
VWidth: 0
GlyphClass: 2
Flags: W
LayerCount: 2
Back
SplineSet
145.8203125 986.282226562 m 0,0,1
 150.573242188 1019.53417969 150.573242188 1019.53417969 194.306640625 999.919921875 c 1,2,3
 250.59765625 977.279296875 250.59765625 977.279296875 564.926757812 988.494140625 c 1,4,5
 588.541015625 986.469726562 588.541015625 986.469726562 587.96875 969.202148438 c 0,6,7
 565.087890625 354.638671875 565.087890625 354.638671875 720.537109375 146.897460938 c 1,8,9
 731.846679688 129.98828125 731.846679688 129.98828125 727.026367188 111.375 c 2,10,-1
 686.596679688 -24.064453125 l 1,11,12
 675.883789062 -56.0986328125 675.883789062 -56.0986328125 646.196289062 -24.26953125 c 1,13,14
 516.668945312 127.889648438 516.668945312 127.889648438 495.469238281 399.956542969 c 128,-1,15
 474.26953125 672.0234375 474.26953125 672.0234375 501.30859375 841.1015625 c 1,16,17
 263.396484375 827.075195312 263.396484375 827.075195312 210.68359375 851.4140625 c 1,18,19
 131.138671875 883.666015625 131.138671875 883.666015625 145.8203125 986.282226562 c 0,0,1
EndSplineSet
Fore
SplineSet
614 -33 m 1,0,1
 525 79 525 79 490 296 c 1,2,3
 457 535 457 535 491 813 c 1,4,5
 481 813 481 813 381 808 c 0,6,7
 282 803 282 803 220 818 c 0,8,9
 135 839 135 839 119 912 c 1,10,11
 99 1017 99 1017 139 1024 c 0,12,13
 156 1027 156 1027 193 1016 c 128,-1,14
 230 1005 230 1005 286.5 1001.5 c 128,-1,15
 343 998 343 998 441 1000 c 128,-1,16
 539 1002 539 1002 560.5 1001.5 c 128,-1,17
 582 1001 582 1001 585 1000.5 c 128,-1,18
 588 1000 588 1000 590.5 999.5 c 128,-1,19
 593 999 593 999 594 997 c 128,-1,20
 595 995 595 995 596 992.5 c 128,-1,21
 597 990 597 990 597.5 987 c 128,-1,22
 598 984 598 984 598 979.5 c 128,-1,23
 598 975 598 975 598 970 c 128,-1,24
 598 965 598 965 598 958.5 c 128,-1,25
 598 952 598 952 598 944 c 0,26,27
 596 634 596 634 660 359 c 1,28,29
 687 251 687 251 739 171 c 1,30,31
 749 153 749 153 744 138 c 128,-1,32
 739 123 739 123 734 108 c 128,-1,33
 729 93 729 93 725 81 c 128,-1,34
 721 69 721 69 707.5 22.5 c 128,-1,35
 694 -24 694 -24 682 -52.5 c 128,-1,36
 670 -81 670 -81 645 -63 c 0,37,38
 638 -58 638 -58 614 -33 c 1,0,1
EndSplineSet
EndChar
StartChar: uni0667
Encoding: 1639 1639 29
Width: 872
VWidth: 0
GlyphClass: 2
Flags: W
LayerCount: 2
Fore
SplineSet
692 1005 m 0,0,1
 702 1018 702 1018 709 1003 c 1,2,-1
 762 850 l 2,3,4
 767 836 767 836 759 828 c 1,5,6
 549 555 549 555 447 6 c 0,7,8
 442 -21 442 -21 423 -21 c 128,-1,9
 404 -21 404 -21 399 6 c 0,10,11
 272 590 272 590 113 811 c 1,12,13
 106 819 106 819 109 833 c 2,14,-1
 144 991 l 2,15,16
 148 1010 148 1010 163 994 c 0,17,18
 303 832 303 832 423 342 c 1,19,20
 516 770 516 770 692 1005 c 0,0,1
EndSplineSet
EndChar
StartChar: uni0668
Encoding: 1640 1640 27
Width: 872
VWidth: 0
GlyphClass: 2
Flags: W
LayerCount: 2
Back
SplineSet
182.926757812 -20.1044921875 m 0,0,1
 166.870117188 -38.7548828125 166.870117188 -38.7548828125 159.958007812 -19.1962890625 c 2,2,-1
 109.625976562 133.000976562 l 2,3,4
 104.517578125 145.864257812 104.517578125 145.864257812 113.771484375 154.373046875 c 1,5,6
 340.291015625 451.842773438 340.291015625 451.842773438 440.944335938 970.803710938 c 0,7,8
 445.795898438 995.568359375 445.795898438 995.568359375 462.1953125 995.297851562 c 128,-1,9
 478.594726562 995.02734375 478.594726562 995.02734375 483.249023438 970.012695312 c 0,10,11
 573.607421875 425.245117188 573.607421875 425.245117188 759.6796875 160.188476562 c 1,12,-1
 764.19140625 141.013671875 l 1,13,-1
 726.413085938 -18.1416015625 l 1,14,15
 720.702148438 -34.1142578125 720.702148438 -34.1142578125 706.564453125 -20.7197265625 c 1,16,17
 572.827148438 126.440429688 572.827148438 126.440429688 456.486328125 634.724609375 c 1,18,19
 345.875 160.2890625 345.875 160.2890625 182.926757812 -20.1044921875 c 0,0,1
EndSplineSet
Fore
SplineSet
98 128 m 128,-1,1
 91 152 91 152 92.5 163 c 128,-1,2
 94 174 94 174 106 194 c 1,3,4
 336 535 336 535 428 954 c 1,5,6
 436 994 436 994 451 1005.5 c 128,-1,7
 466 1017 466 1017 479 1001.5 c 128,-1,8
 492 986 492 986 496 954 c 1,9,10
 504 924 504 924 524 846 c 0,11,12
 544 767 544 767 582 628.5 c 128,-1,13
 620 490 620 490 671.5 372.5 c 128,-1,14
 723 255 723 255 748.5 216 c 128,-1,15
 774 177 774 177 775 173.5 c 128,-1,16
 776 170 776 170 776 166 c 128,-1,17
 776 162 776 162 776 158.5 c 128,-1,18
 776 155 776 155 775.5 149.5 c 128,-1,19
 775 144 775 144 774 140.5 c 128,-1,20
 773 137 773 137 772 130.5 c 128,-1,21
 771 124 771 124 770 120.5 c 128,-1,22
 769 117 769 117 767.5 110 c 128,-1,23
 766 103 766 103 764 95 c 128,-1,24
 762 87 762 87 751.5 41 c 128,-1,25
 741 -5 741 -5 729.5 -39 c 128,-1,26
 718 -73 718 -73 683 -39 c 1,27,28
 567 90 567 90 509 386 c 0,29,30
 472 573 472 573 456 628 c 1,31,32
 447 596 447 596 422.5 495 c 128,-1,33
 398 394 398 394 364.5 270 c 128,-1,34
 331 146 331 146 281 65 c 0,35,36
 181 -98 181 -98 156 -44 c 0,37,38
 151 -34 151 -34 145.5 -17 c 128,-1,39
 140 -0 140 -0 122.5 52 c 128,-1,0
 105 104 105 104 98 128 c 128,-1,1
EndSplineSet
EndChar
StartChar: uni0669
Encoding: 1641 1641 38
Width: 872
VWidth: 0
GlyphClass: 2
Flags: W
LayerCount: 2
Back
SplineSet
393.638671875 1011.59960938 m 0,0,1
 491.12109375 1011.796875 491.12109375 1011.796875 537.720703125 894.265625 c 0,2,3
 557.172851562 845.323242188 557.172851562 845.323242188 553.013671875 748.806640625 c 0,4,5
 535.506835938 335.11328125 535.506835938 335.11328125 678.799804688 118.484375 c 1,6,7
 688.086914062 102.184570312 688.086914062 102.184570312 681.670898438 89.2314453125 c 2,8,-1
 630.240234375 -14.640625 l 2,9,10
 619.390625 -34.439453125 619.390625 -34.439453125 604.48828125 -15.138671875 c 1,11,12
 471.895507812 183.7578125 471.895507812 183.7578125 470.6015625 566.697265625 c 1,13,14
 403.409179688 491.340820312 403.409179688 491.340820312 307.587890625 518.890625 c 128,-1,15
 211.766601562 546.440429688 211.766601562 546.440429688 196.749023438 638.987304688 c 1,16,17
 156.034179688 821.901367188 156.034179688 821.901367188 298.672851562 970.305664062 c 0,18,19
 338.293945312 1011.53320312 338.293945312 1011.53320312 393.638671875 1011.59960938 c 0,0,1
354.380859375 864.631835938 m 0,20,21
 276.012695312 864.235351562 276.012695312 864.235351562 252.33984375 750.198242188 c 1,22,23
 248.13671875 671.732421875 248.13671875 671.732421875 343.630859375 658.241210938 c 128,-1,24
 439.125 644.75 439.125 644.75 482.173828125 714.060546875 c 1,25,26
 472.735351562 865.272460938 472.735351562 865.272460938 354.380859375 864.631835938 c 0,20,21
EndSplineSet
Fore
SplineSet
604 -55.5 m 128,-1,1
 591 -50 591 -50 565 -6 c 128,-1,2
 539 38 539 38 518.5 96.5 c 128,-1,3
 498 155 498 155 488 210 c 128,-1,4
 478 265 478 265 473 324.5 c 128,-1,5
 468 384 468 384 468.5 441 c 128,-1,6
 469 498 469 498 469 560 c 1,7,8
 423 474 423 474 319 485 c 0,9,10
 154 503 154 503 169 752 c 1,11,12
 183 900 183 900 282 996 c 0,13,14
 354 1065 354 1065 449 1032 c 0,15,16
 492 1017 492 1017 520 983 c 1,17,18
 587 906 587 906 583 789 c 0,19,20
 583 768 583 768 581.5 690 c 128,-1,21
 580 612 580 612 584 559 c 1,22,23
 597 335 597 335 685 164 c 0,24,25
 706 123 706 123 705.5 113 c 128,-1,26
 705 103 705 103 630 -41 c 1,27,0
 617 -61 617 -61 604 -55.5 c 128,-1,1
481 717 m 1,28,29
 482 800 482 800 430.5 833.5 c 128,-1,30
 379 867 379 867 322.5 845 c 128,-1,31
 266 823 266 823 252 754 c 1,32,33
 254 718 254 718 278 696 c 128,-1,34
 302 674 302 674 334.5 669.5 c 128,-1,35
 367 665 367 665 399.5 669 c 128,-1,36
 432 673 432 673 455.5 686.5 c 128,-1,37
 479 700 479 700 481 717 c 1,28,29
EndSplineSet
EndChar
StartChar: uni066A
Encoding: 1642 1642 39
Width: 872
VWidth: 0
GlyphClass: 2
Flags: W
LayerCount: 2
Fore
SplineSet
273 913 m 128,-1,1
 176 913 176 913 176 816 c 128,-1,2
 176 719 176 719 273 719 c 128,-1,3
 370 719 370 719 370 816 c 128,-1,0
 370 913 370 913 273 913 c 128,-1,1
575.5 199 m 128,-1,5
 479 199 479 199 479 102 c 128,-1,6
 479 5 479 5 575.5 5 c 128,-1,7
 672 5 672 5 672 102 c 128,-1,4
 672 199 672 199 575.5 199 c 128,-1,5
799 981 m 1,8,-1
 691 1045 l 1,9,-1
 73 9 l 1,10,-1
 181 -55 l 1,11,-1
 799 981 l 1,8,-1
EndSplineSet
EndChar
StartChar: uni0670
Encoding: 1648 1648 167
Width: 872
GlyphClass: 4
Flags: W
AnchorPoint: "TashkilAbove" 395 1640 mark 0
LayerCount: 2
Fore
SplineSet
227 2383 m 1,0,1
 248 2438 248 2438 290 2387 c 1,2,3
 489 2165 489 2165 427 1826 c 1,4,5
 420 1796 420 1796 400 1794 c 0,6,7
 360 1788 360 1788 356 1826 c 0,8,9
 329 2035 329 2035 200 2193 c 0,10,11
 179 2220 179 2220 188 2252 c 2,12,-1
 227 2383 l 1,0,1
EndSplineSet
EndChar
StartChar: uni06F4
Encoding: 1780 1780 145
Width: 872
VWidth: 0
GlyphClass: 2
UnlinkRmOvrlpSave: 1
Flags: W
LayerCount: 2
Back
SplineSet
410.5 704 m 1,0,-1
 342.5 712 l 1,1,2
 346.432617188 1018.65527344 346.432617188 1018.65527344 481.66015625 1036.43457031 c 0,3,4
 620.120117188 1054.44238281 620.120117188 1054.44238281 677.5 932.5 c 0,5,6
 690.807617188 904.013671875 690.807617188 904.013671875 683 894 c 0,7,8
 668.979492188 876.018554688 668.979492188 876.018554688 642.16015625 898.786132812 c 0,9,10
 576.33984375 957.734375 576.33984375 957.734375 496.66015625 931.434570312 c 0,11,12
 434.446289062 910.23828125 434.446289062 910.23828125 410.5 704 c 1,0,-1
682.397460938 825.120117188 m 0,13,14
 691.454101562 842.3515625 691.454101562 842.3515625 702.25 842.798828125 c 0,15,16
 714.932617188 843.325195312 714.932617188 843.325195312 712.983398438 817.13671875 c 0,17,18
 695.888671875 583.600585938 695.888671875 583.600585938 392.006835938 562.385742188 c 1,19,20
 495.854400635 252.694854736 495.854400635 252.694854736 470.412109375 18.2255859375 c 0,21,22
 465.434906006 -31.7266750336 465.434906006 -31.7266750336 440.8515625 -33.1015625 c 0,23,24
 417.656707764 -34.3035240173 417.656707764 -34.3035240173 408.610351562 18.1962890625 c 0,25,26
 337.164978027 423.766571045 337.164978027 423.766571045 105.9296875 797.864257812 c 0,27,28
 99.2827911377 808.719299316 99.2827911377 808.719299316 101.740234375 823.088867188 c 2,29,-1
 127.84375 975.725585938 l 2,30,31
 129.306533813 984.278991699 129.306533813 984.278991699 139.459960938 976.12109375 c 1,32,33
 224.659973145 894.434692383 224.659973145 894.434692383 287.66015625 768.434570312 c 1,34,35
 364.784576416 710.047546387 364.784576416 710.047546387 478.842773438 714.861328125 c 0,36,37
 627.6015625 721.139648438 627.6015625 721.139648438 682.397460938 825.120117188 c 0,13,14
EndSplineSet
Fore
SplineSet
419 -50 m 0,0,1
 398 -39 398 -39 391.5 -14 c 128,-1,2
 385 11 385 11 375.5 63.5 c 128,-1,3
 366 116 366 116 358 143 c 1,4,5
 277 476 277 476 89 781 c 1,6,7
 77 806 77 806 82.5 836 c 128,-1,8
 88 866 88 866 94.5 907.5 c 128,-1,9
 101 949 101 949 110 981 c 1,10,11
 116 1011 116 1011 136 989 c 1,12,13
 228 900 228 900 295 770 c 1,14,-1
 328 749 l 1,15,16
 347 1056 347 1056 487 1073 c 1,17,18
 573 1088 573 1088 639 1035 c 0,19,20
 665 1013 665 1013 689 957.5 c 128,-1,21
 713 902 713 902 677 902 c 0,22,23
 668 902 668 902 657 905 c 128,-1,24
 646 908 646 908 643 908 c 0,25,26
 490 986 490 986 437 839 c 1,27,28
 412 754 412 754 407 727 c 1,29,30
 507 722 507 722 572.5 744.5 c 128,-1,31
 638 767 638 767 671 833 c 0,32,33
 680 852 680 852 694.5 860.5 c 128,-1,34
 709 869 709 869 721 860 c 0,35,36
 737 846 737 846 732.5 798.5 c 128,-1,37
 728 751 728 751 704 699.5 c 128,-1,38
 680 648 680 648 636 615 c 1,39,40
 530 547 530 547 401 542 c 1,41,42
 487 272 487 272 476 62 c 0,43,44
 476 60 476 60 474 34 c 0,45,46
 473 8 473 8 469 -6 c 0,47,48
 451 -67 451 -67 419 -50 c 0,0,1
EndSplineSet
EndChar
StartChar: uni06F5
Encoding: 1781 1781 139
Width: 872
VWidth: 0
GlyphClass: 2
Flags: W
LayerCount: 2
Back
SplineSet
161.331054688 351.575195312 m 0,0,1
 165.470703125 735.53125 165.470703125 735.53125 304.713378906 901.916992188 c 128,-1,2
 443.956054688 1068.30273438 443.956054688 1068.30273438 579.579589844 912.48828125 c 128,-1,3
 715.203125 756.673828125 715.203125 756.673828125 710.559570312 358.298828125 c 0,4,5
 707.019836426 54.4746856689 707.019836426 54.4746856689 569.513671875 27.869140625 c 0,6,7
 477.195983887 10.006937027 477.195983887 10.006937027 435 139.537109375 c 1,8,9
 384.981292725 12.763920784 384.981292725 12.763920784 295.0234375 26.6826171875 c 1,10,11
 158.169326782 58.3852233887 158.169326782 58.3852233887 161.331054688 351.575195312 c 0,0,1
635.208007812 350.30078125 m 0,12,13
 638.3828125 610.091796875 638.3828125 610.091796875 539.1875 720.362304688 c 128,-1,14
 439.9921875 830.6328125 439.9921875 830.6328125 339.680664062 725.268554688 c 128,-1,15
 239.369140625 619.904296875 239.369140625 619.904296875 239.83203125 357.537109375 c 0,16,17
 240.082702637 210.392684937 240.082702637 210.392684937 338.278320312 203.598632812 c 0,18,19
 389 200 389 200 422 310 c 1,20,-1
 447 310 l 1,21,22
 477.720397949 200 477.720397949 200 535.23828125 202.608398438 c 0,23,24
 633.446594238 205.786682129 633.446594238 205.786682129 635.208007812 350.30078125 c 0,12,13
EndSplineSet
Fore
SplineSet
258 12 m 0,0,1
 210 31 210 31 176.5 87.5 c 128,-1,2
 143 144 143 144 133 287.5 c 128,-1,3
 123 431 123 431 155.5 613.5 c 128,-1,4
 188 796 188 796 270 906 c 0,5,6
 329 984 329 984 402.5 1009.5 c 128,-1,7
 476 1035 476 1035 541 987 c 1,8,9
 615 938 615 938 667 827.5 c 128,-1,10
 719 717 719 717 733.5 543 c 128,-1,11
 748 369 748 369 732 245 c 128,-1,12
 716 121 716 121 669 58 c 128,-1,13
 622 -5 622 -5 553 2 c 1,14,15
 500 4 500 4 457 87 c 0,16,17
 448 105 448 105 434 134 c 1,18,19
 428 124 428 124 413 94 c 0,20,21
 397 64 397 64 384 45 c 0,22,23
 339 -19 339 -19 258 12 c 0,0,1
558 224 m 0,24,25
 620 226 620 226 628 287 c 1,26,27
 653 545 653 545 562 681.5 c 128,-1,28
 471 818 471 818 363 738 c 0,29,30
 230 639 230 639 243 329 c 1,31,32
 262 235 262 235 326 229 c 0,33,34
 355 226 355 226 375.5 254 c 128,-1,35
 396 282 396 282 406 312 c 1,36,-1
 461 314 l 1,37,38
 482 257 482 257 504.5 240 c 128,-1,39
 527 223 527 223 558 224 c 0,24,25
EndSplineSet
EndChar
StartChar: uni06F6
Encoding: 1782 1782 140
Width: 872
VWidth: 0
GlyphClass: 2
Flags: W
LayerCount: 2
Back
SplineSet
366.133789062 526.703125 m 1,0,1
 182.424804688 261.712890625 182.424804688 261.712890625 137.885742188 25.986328125 c 0,2,3
 128.56640625 -23.33984375 128.56640625 -23.33984375 151.76171875 -31.595703125 c 0,4,5
 173.67578125 -39.2939453125 173.67578125 -39.2939453125 197.16796875 8.5205078125 c 0,6,7
 374.833007812 370.127929688 374.833007812 370.127929688 707.544921875 671.100585938 c 0,8,9
 716.984375 679.639648438 716.984375 679.639648438 718.681640625 694.118164062 c 2,10,-1
 736.708007812 847.91796875 l 2,11,12
 737.717773438 856.537109375 737.717773438 856.537109375 725.67578125 851.575195312 c 0,13,14
 638.0859375 815.486328125 638.0859375 815.486328125 523.935546875 694.427734375 c 1,15,16
 390.940429688 638.87109375 390.940429688 638.87109375 197.150390625 774.138671875 c 1,17,18
 239.631835938 864.029296875 239.631835938 864.029296875 333.64453125 909.689453125 c 0,19,20
 385.95703125 935.58984375 385.95703125 935.58984375 454.998046875 942.25 c 0,21,22
 488.650390625 945.495117188 488.650390625 945.495117188 488.481445312 963.948242188 c 0,23,24
 488.682617188 980.548828125 488.682617188 980.548828125 456.331054688 993.000976562 c 0,25,26
 164.5546875 1103 164.5546875 1103 140.000976562 792.883789062 c 0,27,28
 125.665039062 619.43359375 125.665039062 619.43359375 366.133789062 526.703125 c 1,0,1
EndSplineSet
Fore
SplineSet
193 772 m 1,0,1
 315 687 315 687 433 686 c 1,2,3
 480 687 480 687 511 699 c 1,4,5
 614 807 614 807 702 858 c 0,6,7
 705 859 705 859 722 867 c 0,8,9
 739 875 739 875 745 866 c 1,10,11
 751 853 751 853 747.5 832.5 c 128,-1,12
 744 812 744 812 741.5 786 c 128,-1,13
 739 760 739 760 733 714 c 128,-1,14
 727 668 727 668 725.5 662.5 c 128,-1,15
 724 657 724 657 724 656 c 128,-1,16
 724 655 724 655 722.5 651 c 128,-1,17
 721 647 721 647 720.5 646.5 c 128,-1,18
 720 646 720 646 718 642.5 c 128,-1,19
 716 639 716 639 714.5 638 c 128,-1,20
 713 637 713 637 709.5 633 c 128,-1,21
 706 629 706 629 702.5 625.5 c 128,-1,22
 699 622 699 622 683 605 c 1,23,24
 386 325 386 325 215 -25 c 1,25,26
 197 -52 197 -52 176.5 -55.5 c 128,-1,27
 156 -59 156 -59 143 -43.5 c 128,-1,28
 130 -28 130 -28 131 -7 c 128,-1,29
 132 14 132 14 136.5 36.5 c 128,-1,30
 141 59 141 59 144.5 72.5 c 128,-1,31
 148 86 148 86 156 114 c 128,-1,32
 164 142 164 142 167 151 c 0,33,34
 222 318 222 318 346 504 c 1,35,36
 284 525 284 525 237 555 c 128,-1,37
 190 585 190 585 145 646 c 1,38,39
 89 732 89 732 111 835 c 1,40,41
 144 1075 144 1075 350 1052 c 0,42,43
 417 1044 417 1044 499 986 c 0,44,45
 539 958 539 958 496 942 c 0,46,47
 488 939 488 939 464.5 936.5 c 128,-1,48
 441 934 441 934 434 933 c 0,49,50
 364 928 364 928 298.5 882 c 128,-1,51
 233 836 233 836 193 772 c 1,0,1
EndSplineSet
EndChar
StartChar: minus
Encoding: 8722 8722 43
Width: 872
VWidth: 0
GlyphClass: 2
Flags: W
LayerCount: 2
Fore
SplineSet
-0 321 m 1,0,-1
 872 320 l 1,1,-1
 872 195 l 1,2,-1
 -0 195 l 1,3,-1
 -0 321 l 1,0,-1
EndSplineSet
EndChar
StartChar: ar1Noqta.above
Encoding: 65536 -1 44
Width: 872
VWidth: 0
GlyphClass: 4
Flags: W
AnchorPoint: "arMarkAbove" 438.4 -100.17 mark 0
LayerCount: 2
Back
SplineSet
439.852539062 94.0634765625 m 1,0,-1
 528.006835938 0.884765625 l 1,1,-1
 431.502929688 -92.3671875 l 1,2,-1
 343.993164062 -0.5361328125 l 1,3,-1
 439.852539062 94.0634765625 l 1,0,-1
EndSplineSet
Fore
SplineSet
430 -146.599609375 m 1,0,-1
 290.799804688 -0.2001953125 l 1,1,2
 401.200195312 109 401.200195312 109 440.799804688 148.599609375 c 1,3,4
 510.400390625 74.2001953125 510.400390625 74.2001953125 581.200195312 -0.2001953125 c 0,5,6
 430 -146.599609375 l 1,0,-1
EndSplineSet
EndChar
StartChar: ar3INoqta.above
Encoding: 65539 -1 40
Width: 872
VWidth: -1000
GlyphClass: 4
Flags: W
AnchorPoint: "arMarkAbove" 438 0 mark 0
LayerCount: 2
Back
SplineSet
11.8525390625 -97.3671875 m 1,0,-1
 100.006835938 -4.1884765625 l 1,1,-1
 3.5029296875 89.0634765625 l 1,2,-1
 -84.0068359375 -2.767578125 l 1,3,-1
 11.8525390625 -97.3671875 l 1,0,-1
107.852539062 73.6328125 m 1,4,-1
 196.006835938 166.811523438 l 1,5,-1
 99.5029296875 260.063476562 l 1,6,-1
 11.9931640625 168.232421875 l 1,7,-1
 107.852539062 73.6328125 l 1,4,-1
-101.147460938 80.6328125 m 1,8,-1
 -12.9931640625 173.811523438 l 1,9,-1
 -109.497070312 267.063476562 l 1,10,-1
 -197.006835938 175.232421875 l 1,11,-1
 -101.147460938 80.6328125 l 1,8,-1
EndSplineSet
Fore
Refer: 37 -1 N 1 0 0 1 1 -9 2
Refer: 38 -1 S 1 0 0 1 0 207 2
EndChar
StartChar: arAin.fina
Encoding: 65577 -1 85
Width: 872
VWidth: 0
GlyphClass: 2
Flags: W
AnchorPoint: "arMarkAbove" 615 800 basechar 0
AnchorPoint: "arMarkBelow" 629 -167 basechar 0
LayerCount: 2
Back
SplineSet
630.909179688 589.142578125 m 1,0,1
 695.662109375 592.244140625 695.662109375 592.244140625 755.186523438 571.7109375 c 0,2,3
 820.036132812 549.344726562 820.036132812 549.344726562 849.857421875 493.440429688 c 128,-1,4
 879.678710938 437.536132812 879.678710938 437.536132812 840.806640625 363.29296875 c 1,5,6
 808.826171875 324.83203125 808.826171875 324.83203125 735.850585938 273.424804688 c 1,7,8
 801.59765625 207.9453125 801.59765625 207.9453125 924.185546875 138.659179688 c 1,9,10
 991.322265625 88.9814453125 991.322265625 88.9814453125 914.961914062 34.98046875 c 0,11,12
 869.51171875 2.83984375 869.51171875 2.83984375 823.345703125 29.42578125 c 1,13,14
 700.849609375 104.271484375 700.849609375 104.271484375 605.40625 192.916992188 c 1,15,16
 590.173828125 183.305664062 590.173828125 183.305664062 560.762207031 163.907226562 c 128,-1,17
 531.350585938 144.508789062 531.350585938 144.508789062 523.184570312 139.171875 c 0,18,19
 264.827148438 -29.0302734375 264.827148438 -29.0302734375 270.879882812 -273.079101562 c 0,20,21
 274.345703125 -412.799804688 274.345703125 -412.799804688 387.794433594 -517.977050781 c 128,-1,22
 501.243164062 -623.154296875 501.243164062 -623.154296875 666.666015625 -644.40234375 c 0,23,24
 863.749023438 -669.71484375 863.749023438 -669.71484375 1113.79492188 -593.806640625 c 1,25,26
 1142.19140625 -580.689453125 1142.19140625 -580.689453125 1148.1953125 -596.165039062 c 128,-1,27
 1154.19921875 -611.640625 1154.19921875 -611.640625 1138.0234375 -633.108398438 c 0,28,29
 1091.1640625 -696.93359375 1091.1640625 -696.93359375 1004.60546875 -745.491210938 c 0,30,31
 762.129882812 -879.110351562 762.129882812 -879.110351562 487.206054688 -756.102050781 c 128,-1,32
 212.282226562 -633.09375 212.282226562 -633.09375 200.245117188 -301.892578125 c 1,33,34
 196.586914062 -8.2060546875 196.586914062 -8.2060546875 396.34375 204.181640625 c 1,35,-1
 517.75 305.548828125 l 1,36,37
 437.948242188 407.201171875 437.948242188 407.201171875 443.1015625 471.662109375 c 1,38,39
 463.455078125 592.970703125 463.455078125 592.970703125 630.909179688 589.142578125 c 1,0,1
EndSplineSet
Fore
SplineSet
500 298 m 1,0,1
 333 464 333 464 462 578 c 0,2,3
 535 642 535 642 715 618 c 0,4,5
 810 605 810 605 869.5 531 c 128,-1,6
 929 457 929 457 885 389 c 0,7,8
 881 384 881 384 878.5 380 c 128,-1,9
 876 376 876 376 871 370.5 c 128,-1,10
 866 365 866 365 864 362.5 c 128,-1,11
 862 360 862 360 855.5 354 c 128,-1,12
 849 348 849 348 836.5 336 c 128,-1,13
 824 324 824 324 763 276 c 1,14,15
 808 239 808 239 873 197.5 c 128,-1,16
 938 156 938 156 953.5 145 c 128,-1,17
 969 134 969 134 972.5 111.5 c 128,-1,18
 976 89 976 89 966 70 c 1,19,20
 945 25 945 25 898.5 6 c 128,-1,21
 852 -13 852 -13 823 3 c 0,22,23
 728 56 728 56 596 173 c 1,24,25
 461 82 461 82 370 -28 c 1,26,27
 277 -148 277 -148 289 -287 c 1,28,29
 300 -377 300 -377 362 -449 c 0,30,31
 474 -582 474 -582 661 -608 c 1,32,33
 789 -627 789 -627 979 -593 c 0,34,35
 1054 -581 1054 -581 1096.5 -568.5 c 128,-1,36
 1139 -556 1139 -556 1150.5 -554.5 c 128,-1,37
 1162 -553 1162 -553 1169 -565 c 0,38,39
 1187 -592 1187 -592 1097 -698 c 1,40,41
 1004 -798 1004 -798 914 -825 c 0,42,43
 630 -910 630 -910 390 -726 c 1,44,45
 308 -657 308 -657 268 -581 c 0,46,47
 172 -397 172 -397 202 -180 c 0,48,49
 241 99 241 99 500 298 c 1,0,1
EndSplineSet
EndChar
StartChar: arAin.medi
Encoding: 65574 -1 82
Width: 872
VWidth: 0
GlyphClass: 2
Flags: W
AnchorPoint: "arMarkAbove" 737 985 basechar 0
AnchorPoint: "arMarkBelow" 750 -234 basechar 0
LayerCount: 2
Back
SplineSet
683.752929688 158.913085938 m 1,0,1
 605.162902832 214.171875 605.162902832 214.171875 587.291015625 233.166992188 c 1,2,3
 465.700378418 374.62008667 465.700378418 374.62008667 643.482421875 463.030273438 c 0,4,5
 721.166320801 501.662109375 721.166320801 501.662109375 822.090820312 484.059570312 c 0,6,7
 1002.32312012 452.626403809 1002.32312012 452.626403809 992.73828125 309.052734375 c 0,8,9
 984.949707031 192.385421753 984.949707031 192.385421753 906.109375 112.090820312 c 0,10,11
 767.402709961 -29.1744098663 767.402709961 -29.1744098663 409.326599121 -44.7275657654 c 0,12,13
 222.190826416 -52.8558731079 222.190826416 -52.8558731079 28.6748046875 -5.0986328125 c 0,14,15
 -63.8593482971 17.7138462067 -63.8593482971 17.7138462067 -72.275390625 123.12109375 c 0,16,17
 -75.5351791382 163.948562622 -75.5351791382 163.948562622 -38.5302734375 155.654296875 c 0,18,19
 465.386383057 46 465.386383057 46 683.752929688 158.913085938 c 1,0,1
EndSplineSet
Fore
SplineSet
987 174 m 0,0,1
 911 25 911 25 701 -32 c 0,2,3
 576 -66 576 -66 383.5 -75.5 c 128,-1,4
 191 -85 191 -85 10 -31 c 1,5,6
 -48 -11 -48 -11 -68 48 c 128,-1,7
 -88 107 -88 107 -83 143 c 0,8,9
 -78 179 -78 179 -53 184 c 1,10,11
 -34 185 -34 185 -17 182 c 0,12,13
 236 124 236 124 471 132 c 1,14,15
 590 139 590 139 668 161 c 1,16,17
 563 219 563 219 538 251 c 1,18,19
 496 311 496 311 511.5 367.5 c 128,-1,20
 527 424 527 424 578 460 c 0,21,22
 681 533 681 533 801 518 c 0,23,24
 964 499 964 499 1008 399 c 1,25,26
 1027 359 1027 359 1022.5 297 c 128,-1,27
 1018 235 1018 235 987 174 c 0,0,1
EndSplineSet
EndChar
StartChar: arAlef.fina.1
Encoding: 65580 -1 88
Width: 872
VWidth: 0
GlyphClass: 2
Flags: W
AnchorPoint: "arCursive" 0 0 entry 0
AnchorPoint: "arMarkAbove" 57 1195 basechar 0
AnchorPoint: "arMarkBelow" 362 -176 basechar 0
LayerCount: 2
Back
SplineSet
538.786132812 262.6328125 m 0,0,1
 480.431640625 540.544921875 480.431640625 540.544921875 227.287109375 863.716796875 c 1,2,3
 150.012695312 810.015625 150.012695312 810.015625 66.2861328125 942.481445312 c 0,4,5
 -9.9462890625 1063.09082031 -9.9462890625 1063.09082031 114.84765625 1108.58984375 c 0,6,7
 184.375 1133.93945312 184.375 1133.93945312 251.544921875 1056.35839844 c 0,8,9
 511 757 511 757 587.375 350.772460938 c 1,10,11
 607.317382812 251.455078125 607.317382812 251.455078125 585.336914062 232.3359375 c 0,12,13
 551.354492188 202.77734375 551.354492188 202.77734375 538.786132812 262.6328125 c 0,0,1
EndSplineSet
Fore
SplineSet
726 157 m 0,0,1
 535 556 535 556 191 897 c 0,2,3
 172 916 172 916 166 922 c 1,4,5
 120 898 120 898 67.5 949 c 128,-1,6
 15 1000 15 1000 -15 1072 c 1,7,8
 -36 1137 -36 1137 19 1201 c 1,9,10
 41 1230 41 1230 69 1244 c 0,11,12
 128 1273 128 1273 174 1226 c 0,13,14
 255 1145 255 1145 432 911 c 0,15,16
 751 491 751 491 788 230 c 0,17,18
 796 173 796 173 789.5 144 c 128,-1,19
 783 115 783 115 769 113.5 c 128,-1,20
 755 112 755 112 745 124 c 128,-1,21
 735 136 735 136 726 157 c 0,0,1
EndSplineSet
EndChar
StartChar: arAlef.fina.2
Encoding: 65581 -1 89
Width: 872
VWidth: 0
GlyphClass: 2
Flags: W
AnchorPoint: "arCursive" 0 0 entry 0
AnchorPoint: "arMarkAbove" 23 1291 basechar 0
AnchorPoint: "arMarkBelow" 316 -180 basechar 0
LayerCount: 2
Back
SplineSet
743.947265625 150 m 1,0,1
 654.6953125 367.813476562 654.6953125 367.813476562 510.107421875 570.701171875 c 0,2,3
 373.872070312 761.8671875 373.872070312 761.8671875 188.509765625 939.783203125 c 1,4,5
 116.162109375 909.354492188 116.162109375 909.354492188 30.27734375 1047.08300781 c 0,6,7
 -17.7626953125 1124.12207031 -17.7626953125 1124.12207031 43.1293945312 1195.87158203 c 128,-1,8
 104.021484375 1267.62109375 104.021484375 1267.62109375 186.532226562 1169.23632812 c 0,9,10
 417.059570312 894.360351562 417.059570312 894.360351562 558.536132812 681.701171875 c 0,11,12
 781.209960938 346.98828125 781.209960938 346.98828125 783.280273438 166.404296875 c 0,13,14
 783.534179688 126.786132812 783.534179688 126.786132812 773 123.766601562 c 0,15,16
 755.5 118.5 755.5 118.5 743.947265625 150 c 1,0,1
EndSplineSet
Fore
SplineSet
525 265.5 m 128,-1,1
 508 326 508 326 475 402 c 0,2,3
 442 478 442 478 370 601 c 128,-1,4
 298 724 298 724 199 842 c 1,5,6
 150 819 150 819 118.5 839.5 c 128,-1,7
 87 860 87 860 50.5 914 c 128,-1,8
 14 968 14 968 8 1007.5 c 128,-1,9
 2 1047 2 1047 37 1083.5 c 128,-1,10
 72 1120 72 1120 136 1135 c 0,11,12
 200 1150 200 1150 255 1096 c 0,13,14
 274 1077 274 1077 290.5 1057 c 128,-1,15
 307 1037 307 1037 309 1035 c 0,16,17
 538 753 538 753 602 322 c 1,18,19
 603 302 603 302 603 282 c 0,20,21
 605 231 605 231 573.5 218 c 128,-1,0
 542 205 542 205 525 265.5 c 128,-1,1
EndSplineSet
EndChar
StartChar: arAlef.fina
Encoding: 65596 -1 153
Width: 872
VWidth: 0
GlyphClass: 2
Flags: W
AnchorPoint: "arMarkBelow" 846 -72 basechar 0
AnchorPoint: "arMarkAbove" 780 1240 basechar 0
LayerCount: 2
Back
SplineSet
856.815429688 1219.13378906 m 0,0,1
 857.218505859 1054.96252441 857.218505859 1054.96252441 855.190429688 672.236328125 c 0,2,3
 852.83203125 227.169387817 852.83203125 227.169387817 853.182434082 151.5 c 1,4,5
 879.678649902 141.237136841 879.678649902 141.237136841 881.473205566 117 c 0,6,7
 886.391601562 50.6990318298 886.391601562 50.6990318298 863 48 c 0,8,9
 846.5 46.5 846.5 46.5 832.333007812 65.5576171875 c 0,10,11
 810.5 93 810.5 93 802.709960938 134 c 1,12,-1
 755.184570312 1081.05761719 l 2,13,14
 754.363891602 1097.41113281 754.363891602 1097.41113281 765.995117188 1114.64648438 c 2,15,-1
 839.325195312 1223.30859375 l 2,16,17
 856.947143555 1249.42114258 856.947143555 1249.42114258 856.815429688 1219.13378906 c 0,0,1
EndSplineSet
Fore
SplineSet
785 153 m 1,0,1
 769 467 769 467 755 772 c 128,-1,2
 741 1077 741 1077 740.5 1083 c 128,-1,3
 740 1089 740 1089 740.5 1091 c 128,-1,4
 741 1093 741 1093 742 1097.5 c 128,-1,5
 743 1102 743 1102 745.5 1106.5 c 128,-1,6
 748 1111 748 1111 760 1132 c 0,7,8
 772 1153 772 1153 832 1231 c 0,9,10
 849 1253 849 1253 865.5 1250 c 128,-1,11
 882 1247 882 1247 884 1228 c 128,-1,12
 886 1209 886 1209 885.5 1171.5 c 128,-1,13
 885 1134 885 1134 885 1060.5 c 128,-1,14
 885 987 885 987 871 635 c 0,15,16
 856 282 856 282 856 148 c 1,17,18
 898 138 898 138 899 100 c 128,-1,19
 900 62 900 62 884 47 c 1,20,21
 850 23 850 23 819.5 61.5 c 128,-1,22
 789 100 789 100 785 153 c 1,0,1
EndSplineSet
EndChar
StartChar: arAlef.isol
Encoding: 65545 -1 53
Width: 872
VWidth: 0
GlyphClass: 2
Flags: W
AnchorPoint: "arMarkBelow" 476 -142 basechar 0
AnchorPoint: "arMarkAbove" 410 1170 basechar 0
LayerCount: 2
Back
SplineSet
486.815429688 1149.13378906 m 1,0,1
 486.1015625 984.966796875 486.1015625 984.966796875 485.190429688 602.236328125 c 128,-1,2
 484.279296875 219.505859375 484.279296875 219.505859375 483.182617188 15.681640625 c 1,3,4
 479.912109375 -17.9375 479.912109375 -17.9375 458.853027344 -17.07421875 c 128,-1,5
 437.793945312 -16.2109375 437.793945312 -16.2109375 435.106445312 16.2529296875 c 1,6,-1
 385.184570312 1011.05761719 l 1,7,8
 385.47265625 1027.75 385.47265625 1027.75 395.995117188 1044.64648438 c 2,9,-1
 469.325195312 1153.30859375 l 1,10,11
 484.44921875 1172.03808594 484.44921875 1172.03808594 486.815429688 1149.13378906 c 1,0,1
EndSplineSet
Fore
SplineSet
459 -21 m 0,0,1
 431 -20 431 -20 426 35 c 0,2,3
 368 745 368 745 356 1016 c 1,4,5
 358 1032 358 1032 371.5 1052 c 128,-1,6
 385 1072 385 1072 414.5 1115.5 c 128,-1,7
 444 1159 444 1159 464 1183 c 128,-1,8
 484 1207 484 1207 504 1182 c 1,9,10
 524 1152 524 1152 508 654.5 c 128,-1,11
 492 157 492 157 492 86.5 c 128,-1,12
 492 16 492 16 483.5 -2.5 c 128,-1,13
 475 -21 475 -21 459 -21 c 0,0,1
EndSplineSet
EndChar
StartChar: arBeh.medi
Encoding: 65573 -1 75
Width: 872
VWidth: 0
GlyphClass: 2
Flags: W
AnchorPoint: "arMarkBelow" 404 -324 basechar 0
AnchorPoint: "arMarkAbove" 618 700 basechar 0
LayerCount: 2
Back
SplineSet
435 -28 m 0,0,1
 201 -52 201 -52 28.6748046875 -5.0986328125 c 0,2,3
 -63.6842041016 20.6649971008 -63.6842041016 20.6649971008 -72.275390625 123.12109375 c 0,4,5
 -75.7958831787 165.096878052 -75.7958831787 165.096878052 -38.5302734375 155.654296875 c 0,6,7
 218.519088745 89.888053894 218.519088745 89.888053894 423 109 c 0,8,9
 694.596862793 134.384994507 694.596862793 134.384994507 843.578125 290.53515625 c 1,10,-1
 872.962890625 261.370117188 l 1,11,12
 865.892211914 194.517578125 865.892211914 194.517578125 822.54296875 132.961914062 c 0,13,14
 730.260986328 2.28317785263 730.260986328 2.28317785263 435 -28 c 0,0,1
EndSplineSet
Fore
SplineSet
883 252 m 1,0,1
 873 161 873 161 812.5 89 c 128,-1,2
 752 17 752 17 647 -18 c 128,-1,3
 542 -53 542 -53 336.5 -64 c 128,-1,4
 131 -75 131 -75 -12 -22 c 1,5,6
 -64 2 -64 2 -79 86 c 0,7,8
 -89 137 -89 137 -84 162 c 1,9,10
 -74 198 -74 198 -10 180 c 0,11,12
 10 174 10 174 18 173 c 0,13,14
 539 55 539 55 807 295 c 0,15,16
 830 315 830 315 844 325 c 0,17,18
 872 343 872 343 880 310 c 0,19,20
 886 291 886 291 883 252 c 1,0,1
EndSplineSet
EndChar
StartChar: arFeh.init
Encoding: 65568 -1 70
Width: 872
VWidth: 0
GlyphClass: 2
Flags: W
AnchorPoint: "arMarkAbove" 614 900 basechar 0
AnchorPoint: "arMarkBelow" 636 -250 basechar 0
LayerCount: 2
Back
SplineSet
781.330078125 188.346679688 m 1,0,1
 785.778320312 242.15625 785.778320312 242.15625 765.719726562 317.571289062 c 1,2,3
 505.16796875 199.23046875 505.16796875 199.23046875 487.399414062 396.731445312 c 0,4,5
 477.970703125 501.454101562 477.970703125 501.454101562 523.873535156 600.467773438 c 128,-1,6
 569.776367188 699.481445312 569.776367188 699.481445312 657.907226562 694.4609375 c 0,7,8
 787.088867188 687.114257812 787.088867188 687.114257812 834.201171875 468.369140625 c 0,9,10
 880.321289062 254.232421875 880.321289062 254.232421875 832.604492188 153.728515625 c 0,11,12
 758.651367188 -3.1728515625 758.651367188 -3.1728515625 500.955078125 -29.15625 c 1,13,14
 201.015731812 -57.8606262207 201.015731812 -57.8606262207 28.6748046875 -5.0986328125 c 0,15,16
 -63.900390625 23.2431640625 -63.900390625 23.2431640625 -72.275390625 123.12109375 c 0,17,18
 -75.7958831787 165.096878052 -75.7958831787 165.096878052 -38.5302734375 155.654296875 c 0,19,20
 473.130126953 39.8220939636 473.130126953 39.8220939636 781.330078125 188.346679688 c 1,0,1
742.94140625 445.364257812 m 1,21,22
 703.627929688 580.931640625 703.627929688 580.931640625 630.129882812 573.530761719 c 128,-1,23
 556.631835938 566.129882812 556.631835938 566.129882812 540.32421875 447.209960938 c 1,24,25
 561.614257812 412.055664062 561.614257812 412.055664062 631.245117188 415.047851562 c 128,-1,26
 700.875976562 418.040039062 700.875976562 418.040039062 742.94140625 445.364257812 c 1,21,22
EndSplineSet
Fore
SplineSet
526 -67 m 0,0,1
 176 -103 176 -103 -7 -34 c 1,2,3
 -78 -3 -78 -3 -80 109 c 0,4,5
 -80 120 -80 120 -81 137.5 c 128,-1,6
 -82 155 -82 155 -65.5 164 c 128,-1,7
 -49 173 -49 173 -42 173 c 128,-1,8
 -35 173 -35 173 -18 168 c 1,9,10
 366 85 366 85 650 155 c 0,11,12
 727 174 727 174 782 200 c 1,13,14
 782 245 782 245 773 292 c 1,15,16
 673 239 673 239 571 248 c 1,17,18
 518 254 518 254 487 300 c 0,19,20
 473 321 473 321 467 346 c 1,21,22
 447 414 447 414 465.5 516 c 128,-1,23
 484 618 484 618 542 683 c 1,24,25
 573 714 573 714 616.5 724.5 c 128,-1,26
 660 735 660 735 699 722 c 0,27,28
 778 696 778 696 817 619 c 1,29,30
 849 562 849 562 858.5 508 c 128,-1,31
 868 454 868 454 877 400 c 0,32,33
 897 277 897 277 865 166 c 0,34,35
 806 -39 806 -39 526 -67 c 0,0,1
745 448 m 1,36,37
 735 477 735 477 710.5 513 c 128,-1,38
 686 549 686 549 660 561 c 1,39,40
 628 570 628 570 600 552 c 0,41,42
 548 518 548 518 539 446 c 1,43,44
 578 410 578 410 677 429 c 0,45,46
 716 436 716 436 745 448 c 1,36,37
EndSplineSet
EndChar
StartChar: arGaf.isol
Encoding: 65586 -1 133
Width: 872
VWidth: 0
GlyphClass: 2
Flags: W
AnchorPoint: "arMarkBelow" 612 -204 basechar 0
AnchorPoint: "arMarkAbove" 799 1247 basechar 0
LayerCount: 2
Back
SplineSet
815.190429688 29.072265625 m 0,0,1
 862.585876465 41.0200996399 862.585876465 41.0200996399 884.235351562 123.215820312 c 0,2,3
 906.489257812 207.708984375 906.489257812 207.708984375 894.086914062 256.181640625 c 0,4,5
 879.557922363 312.965881348 879.557922363 312.965881348 718.171875 547.858398438 c 0,6,7
 553.696289062 787.249023438 553.696289062 787.249023438 468.65234375 884.130859375 c 1,8,9
 715.13671875 1034.33691406 715.13671875 1034.33691406 1150.66894531 1275.65429688 c 1,10,-1
 1159.47265625 1291.10839844 l 1,11,-1
 1159.69238281 1395.7421875 l 2,12,13
 1159.73291016 1415.0234375 1159.73291016 1415.0234375 1145.30761719 1407.18261719 c 0,14,15
 599.825378418 1110.68713379 599.825378418 1110.68713379 417.456054688 982.788085938 c 0,16,17
 387.997406006 962.128173828 387.997406006 962.128173828 379.309570312 896.073242188 c 0,18,19
 370.963592529 832.617553711 370.963592529 832.617553711 390.854492188 805.424804688 c 0,20,21
 688.487243652 398.532714844 688.487243652 398.532714844 821.03125 185.997070312 c 1,22,23
 583.839050293 119.156425476 583.839050293 119.156425476 386.922851562 117.1328125 c 0,24,25
 124.9140625 113.75390625 124.9140625 113.75390625 33.5361328125 186.985351562 c 0,26,27
 -16.8134765625 226.793945312 -16.8134765625 226.793945312 -4.3310546875 331.2421875 c 1,28,29
 -41.2470703125 372.548828125 -41.2470703125 372.548828125 -54.802734375 335.109375 c 0,30,31
 -74.525390625 280.637695312 -74.525390625 280.637695312 -65.4453125 187.620117188 c 0,32,33
 -50.9013671875 38.208984375 -50.9013671875 38.208984375 112.672851562 -6.208984375 c 1,34,35
 213.293273926 -38.3317909241 213.293273926 -38.3317909241 433.708190918 -32.148109436 c 0,36,37
 599.005249023 -27.5107402802 599.005249023 -27.5107402802 815.190429688 29.072265625 c 0,0,1
EndSplineSet
Fore
SplineSet
79 -27 m 0,0,1
 -111 40 -111 40 -83 271 c 1,2,3
 -79 328 -79 328 -65 348 c 128,-1,4
 -51 368 -51 368 -45.5 370 c 128,-1,5
 -40 372 -40 372 -21.5 361 c 128,-1,6
 -3 350 -3 350 -2 340 c 128,-1,7
 -1 330 -1 330 -2 317 c 0,8,9
 -6 249 -6 249 20 225 c 1,10,11
 65 178 65 178 154 159.5 c 128,-1,12
 243 141 243 141 376 138 c 1,13,14
 602 143 602 143 818 200 c 1,15,16
 747 311 747 311 582.5 508 c 128,-1,17
 418 705 418 705 359 787 c 1,18,19
 339 825 339 825 349.5 907 c 128,-1,20
 360 989 360 989 389.5 1013.5 c 128,-1,21
 419 1038 419 1038 459.5 1063 c 128,-1,22
 500 1088 500 1088 521.5 1102 c 128,-1,23
 543 1116 543 1116 573.5 1134.5 c 128,-1,24
 604 1153 604 1153 630 1168.5 c 128,-1,25
 656 1184 656 1184 691 1204 c 128,-1,26
 726 1224 726 1224 748 1236.5 c 128,-1,27
 770 1249 770 1249 809 1271 c 128,-1,28
 848 1293 848 1293 866.5 1303.5 c 128,-1,29
 885 1314 885 1314 1009.5 1383 c 128,-1,30
 1134 1452 1134 1452 1149 1454 c 128,-1,31
 1164 1456 1164 1456 1168 1444.5 c 128,-1,32
 1172 1433 1172 1433 1171 1411 c 0,33,34
 1171 1389 1171 1389 1172.5 1346 c 128,-1,35
 1174 1303 1174 1303 1163 1288 c 128,-1,36
 1152 1273 1152 1273 1137 1266 c 0,37,38
 730 1040 730 1040 486 893 c 1,39,40
 515 857 515 857 641 708.5 c 128,-1,41
 767 560 767 560 838.5 451.5 c 128,-1,42
 910 343 910 343 925 305.5 c 128,-1,43
 940 268 940 268 941 252.5 c 128,-1,44
 942 237 942 237 939 219.5 c 128,-1,45
 936 202 936 202 933 188.5 c 128,-1,46
 930 175 930 175 924 155 c 128,-1,47
 918 135 918 135 916 126 c 0,48,49
 898 54 898 54 869 27.5 c 128,-1,50
 840 1 840 1 796 -7 c 1,51,52
 567 -64 567 -64 374 -63.5 c 128,-1,53
 181 -63 181 -63 79 -27 c 0,0,1
EndSplineSet
EndChar
StartChar: arHah.init
Encoding: 65564 -1 72
Width: 872
VWidth: 0
GlyphClass: 2
Flags: W
AnchorPoint: "arMarkAbove" 529 685 basechar 0
AnchorPoint: "arMarkBelow" 491 -369 basechar 0
LayerCount: 2
Back
SplineSet
252.267578125 369.592773438 m 0,0,1
 378.912109375 551.196960449 378.912109375 551.196960449 535.553710938 473.9921875 c 0,2,3
 859.18548584 314.482116699 859.18548584 314.482116699 1033.90820312 285.5546875 c 1,4,5
 1056.19042969 283.068359375 1056.19042969 283.068359375 1042.06738281 262.922851562 c 2,6,-1
 943.973815918 123 l 2,7,8
 935.008789062 110.212104797 935.008789062 110.212104797 921.5 111.609451294 c 0,9,10
 802.993347168 123.86769104 802.993347168 123.86769104 718.306640625 108.134765625 c 0,11,12
 628.848632812 91.5146484375 628.848632812 91.5146484375 531.599609375 54.7280273438 c 128,-1,13
 434.350585938 17.94140625 434.350585938 17.94140625 354.235351562 3.572265625 c 0,14,15
 107.301322937 -37.9078865051 107.301322937 -37.9078865051 0.841796875 8.6455078125 c 0,16,17
 -66.5962753296 38.1353187561 -66.5962753296 38.1353187561 -72.9990234375 126 c 0,18,19
 -75.9867172241 167 -75.9867172241 167 -31.150390625 158.787109375 c 0,20,21
 355.929901123 91.4720687866 355.929901123 91.4720687866 678.561523438 248.416015625 c 1,22,23
 416.330413818 379.617858887 416.330413818 379.617858887 288.478515625 326.409179688 c 0,24,25
 258.281860352 313.842102051 258.281860352 313.842102051 247.032226562 323.45703125 c 0,26,27
 230.91796875 337.23046875 230.91796875 337.23046875 252.267578125 369.592773438 c 0,0,1
EndSplineSet
Fore
SplineSet
755 88.5 m 128,-1,1
 663 71 663 71 617 54 c 128,-1,2
 571 37 571 37 491.5 9 c 128,-1,3
 412 -19 412 -19 304 -36 c 128,-1,4
 196 -53 196 -53 114.5 -46 c 128,-1,5
 33 -39 33 -39 -6 -15 c 0,6,7
 -93 38 -93 38 -86 150 c 0,8,9
 -83 199 -83 199 7.5 183.5 c 128,-1,10
 98 168 98 168 213 168 c 0,11,12
 483 167 483 167 678 248 c 1,13,14
 617 275 617 275 522.5 299.5 c 128,-1,15
 428 324 428 324 385.5 324 c 128,-1,16
 343 324 343 324 290 311 c 128,-1,17
 237 298 237 298 224 311 c 0,18,19
 198 337 198 337 244 399 c 0,20,21
 374 578 374 578 529 509 c 1,22,23
 557 495 557 495 718 415.5 c 128,-1,24
 879 336 879 336 972 314 c 128,-1,25
 1065 292 1065 292 1074 287.5 c 128,-1,26
 1083 283 1083 283 1069 262 c 2,27,-1
 1019 190 l 2,28,29
 988 144 988 144 968 119 c 128,-1,30
 948 94 948 94 922 98 c 1,31,0
 847 106 847 106 755 88.5 c 128,-1,1
EndSplineSet
EndChar
StartChar: arHamza.isol
Encoding: 65583 -1 107
Width: 872
VWidth: -1400
GlyphClass: 2
Flags: W
LayerCount: 2
Back
SplineSet
513.831054688 237.8984375 m 1,0,1
 427.640625 314.426757812 427.640625 314.426757812 368.357421875 257.205078125 c 1,2,3
 340.9375 227.649414062 340.9375 227.649414062 379.622558594 186.891601562 c 128,-1,4
 418.307617188 146.133789062 418.307617188 146.133789062 475.876953125 151.58984375 c 1,5,6
 540.046875 171.961914062 540.046875 171.961914062 635.325195312 212.205078125 c 1,7,8
 652.856445312 217.758789062 652.856445312 217.758789062 650.10546875 203.474609375 c 2,9,-1
 635.354492188 113.049804688 l 2,10,11
 633.740234375 101.276367188 633.740234375 101.276367188 622.727539062 96.04296875 c 0,12,13
 500.978515625 49.990234375 500.978515625 49.990234375 221.521484375 -77.072265625 c 1,14,15
 224.779296875 -8.6083984375 224.779296875 -8.6083984375 307.200195312 75.798828125 c 1,16,17
 227.09375 145.853515625 227.09375 145.853515625 257.76171875 225.227539062 c 1,18,19
 425.419921875 514.745117188 425.419921875 514.745117188 560.032226562 346.956054688 c 1,20,21
 574.193359375 332.513671875 574.193359375 332.513671875 573.69921875 317.454101562 c 1,22,23
 562.658203125 275.651367188 562.658203125 275.651367188 545.924804688 251.911621094 c 128,-1,24
 529.19140625 228.171875 529.19140625 228.171875 513.831054688 237.8984375 c 1,0,1
EndSplineSet
Fore
SplineSet
184 -127 m 1,0,1
 217 -9 217 -9 289 75 c 1,2,3
 195 175 195 175 249 274 c 0,4,5
 392 533 392 533 524 442 c 0,6,7
 588 398 588 398 600 372 c 1,8,9
 607 352 607 352 587 308 c 128,-1,10
 567 264 567 264 538 247 c 1,11,12
 516 237 516 237 493 259 c 1,13,14
 445 291 445 291 411 288 c 1,15,16
 398 286 398 286 375.5 263.5 c 128,-1,17
 353 241 353 241 357.5 227 c 128,-1,18
 362 213 362 213 384 198.5 c 128,-1,19
 406 184 406 184 437.5 179.5 c 128,-1,20
 469 175 469 175 512.5 192.5 c 128,-1,21
 556 210 556 210 588.5 223 c 128,-1,22
 621 236 621 236 641.5 243 c 128,-1,23
 662 250 662 250 672 237 c 128,-1,24
 682 224 682 224 675 172 c 0,25,26
 668 120 668 120 659 91 c 1,27,28
 649 72 649 72 578 45 c 128,-1,29
 507 18 507 18 184 -127 c 1,0,1
EndSplineSet
EndChar
StartChar: arHeh.fina
Encoding: 65597 -1 154
Width: 872
GlyphClass: 2
Flags: W
AnchorPoint: "arMarkAbove" 514 862 basechar 0
AnchorPoint: "arMarkBelow" 644 -90 basechar 0
LayerCount: 2
Back
SplineSet
745.049804688 740 m 2,0,1
 767.396850586 770.99810791 767.396850586 770.99810791 771.450195312 725.599609375 c 0,2,3
 773.849609375 694.400390625 773.849609375 694.400390625 794.649902344 532.400390625 c 128,-1,4
 815.450195312 370.400390625 815.450195312 370.400390625 818.650390625 340.799804688 c 0,5,6
 833.66204834 198.534210205 833.66204834 198.534210205 874.650390625 172.400390625 c 0,7,8
 985.580688477 101.509765625 985.580688477 101.509765625 973.715148926 61.5546875 c 128,-1,9
 961.849609375 21.599609375 961.849609375 21.599609375 946.650390625 20 c 0,10,11
 853.049804688 12 853.049804688 12 809.449707031 56.3999023438 c 128,-1,12
 765.849609375 100.799804688 765.849609375 100.799804688 748.25 241.599609375 c 1,13,14
 624.747558594 133.413787842 624.747558594 133.413787842 480.66796875 145.830078125 c 1,15,16
 360.322845459 157.945495605 360.322845459 157.945495605 380.650390625 256 c 0,17,18
 392.393218994 316.88369751 392.393218994 316.88369751 401.849609375 334.799804688 c 0,19,20
 464.160797119 459.910461426 464.160797119 459.910461426 707.650390625 582.799804688 c 1,21,22
 698.560302734 650 698.560302734 650 698.451171875 652.259765625 c 0,23,24
 698.170166016 674.972167969 698.170166016 674.972167969 720.25 705.599609375 c 2,25,-1
 745.049804688 740 l 2,0,1
718.849609375 482.799804688 m 1,26,27
 589.317260742 436.742248535 589.317260742 436.742248535 478.650390625 342.400390625 c 0,28,29
 443.920349121 311.512268066 443.920349121 311.512268066 482.650390625 295.599609375 c 1,30,31
 590.789611816 254.428115845 590.789611816 254.428115845 720.25 286.799804688 c 0,32,33
 729.849609375 289.200195312 729.849609375 289.200195312 738.650390625 298 c 1,34,35
 735.31262207 350 735.31262207 350 718.849609375 482.799804688 c 1,26,27
EndSplineSet
Fore
SplineSet
810 40 m 0,0,1
 772 72 772 72 748 189 c 1,2,3
 610 108 610 108 533 106 c 0,4,5
 394 102 394 102 352 176 c 0,6,7
 328 220 328 220 344 282 c 1,8,9
 359 368 359 368 412 425 c 1,10,11
 487 512 487 512 643 598 c 0,12,13
 646 600 646 600 669 613.5 c 128,-1,14
 692 627 692 627 696 629 c 1,15,16
 695 636 695 636 692 660.5 c 128,-1,17
 689 685 689 685 696 695 c 128,-1,18
 703 705 703 705 713.5 723.5 c 128,-1,19
 724 742 724 742 734 755 c 0,20,21
 744 767 744 767 758 781 c 128,-1,22
 772 795 772 795 783.5 778 c 128,-1,23
 795 761 795 761 816.5 571 c 128,-1,24
 838 381 838 381 853 292.5 c 128,-1,25
 868 204 868 204 892 190 c 1,26,27
 983 129 983 129 987 86 c 0,28,29
 989 66 989 66 979.5 42.5 c 128,-1,30
 970 19 970 19 966 15 c 128,-1,31
 962 11 962 11 960 9 c 128,-1,32
 958 7 958 7 952 6 c 0,33,34
 867 -8 867 -8 810 40 c 0,0,1
735 306 m 1,35,36
 728 384 728 384 716 483 c 1,37,38
 678 473 678 473 616.5 440 c 128,-1,39
 555 407 555 407 507.5 372 c 128,-1,40
 460 337 460 337 461.5 319 c 128,-1,41
 463 301 463 301 520 288.5 c 128,-1,42
 577 276 577 276 643.5 280 c 128,-1,43
 710 284 710 284 735 306 c 1,35,36
EndSplineSet
EndChar
StartChar: arHeh.init
Encoding: 65572 -1 80
Width: 872
VWidth: 0
GlyphClass: 2
Flags: W
AnchorPoint: "arMarkBelow" 464 -214 basechar 0
AnchorPoint: "arMarkAbove" 563 857 basechar 0
LayerCount: 2
Back
SplineSet
811 -57 m 0,0,1
 708 -95 708 -95 480 -1 c 0,2,3
 473 2 473 2 440 20 c 128,-1,4
 407 38 407 38 402 41 c 1,5,6
 273 -29 273 -29 110 -22 c 1,7,8
 -38 -6 -38 -6 -72 88 c 0,9,10
 -87 130 -87 130 -84 157 c 0,11,12
 -78 209 -78 209 -33 196 c 0,13,14
 -24 194 -24 194 -6 190 c 0,15,16
 119 160 119 160 218 177 c 1,17,18
 193 219 193 219 190 269.5 c 128,-1,19
 187 320 187 320 208 365 c 1,20,21
 241 443 241 443 339 534 c 0,22,23
 340 535 340 535 345 539.5 c 128,-1,24
 350 544 350 544 352 548 c 1,25,26
 363 633 363 633 394.5 667 c 128,-1,27
 426 701 426 701 463.5 705 c 128,-1,28
 501 709 501 709 526.5 694.5 c 128,-1,29
 552 680 552 680 574.5 664 c 128,-1,30
 597 648 597 648 624 625.5 c 128,-1,31
 651 603 651 603 664 593 c 0,32,33
 809 473 809 473 874 367 c 1,34,35
 953 223 953 223 914 62 c 1,36,37
 888 -29 888 -29 811 -57 c 0,0,1
625 373 m 1,38,39
 628 283 628 283 559 172 c 1,40,41
 562 171 562 171 576 164 c 0,42,43
 758 89 758 89 810 104 c 1,44,45
 788 188 788 188 736.5 251.5 c 128,-1,46
 685 315 685 315 625 373 c 1,38,39
433 221 m 0,47,48
 509 261 509 261 534 288 c 1,49,50
 528 331 528 331 500.5 375 c 128,-1,51
 473 419 473 419 458 435 c 1,52,53
 353 394 353 394 303 324 c 1,54,55
 301 300 301 300 345 271 c 0,56,57
 356 264 356 264 363 259.5 c 128,-1,58
 370 255 370 255 383 247.5 c 128,-1,59
 396 240 396 240 401 237.5 c 128,-1,60
 406 235 406 235 419 228 c 128,-1,61
 432 221 432 221 433 221 c 0,47,48
288.708007812 152.639648438 m 1,0,1
 132.345703125 304.598632812 132.345703125 304.598632812 389.5625 525.940429688 c 1,2,3
 412.8515625 734.485351562 412.8515625 734.485351562 550.783203125 631.6875 c 0,4,5
 737.083984375 492.837890625 737.083984375 492.837890625 817.258789062 380.9375 c 0,6,7
 901.48046875 263.388671875 901.48046875 263.388671875 881.28125 95.994140625 c 0,8,9
 877.134765625 61.634765625 877.134765625 61.634765625 851.565429688 23.8125 c 0,10,11
 815.185546875 -30 815.185546875 -30 738.3671875 -27.4912109375 c 0,12,13
 625.66015625 -25.0849609375 625.66015625 -25.0849609375 437.829101562 61.4091796875 c 1,14,15
 224.790283203 -59.0976486206 224.790283203 -59.0976486206 38.9521484375 -7.68359375 c 0,16,17
 -69.6605300903 22.365234375 -69.6605300903 22.365234375 -72.6611328125 132.344726562 c 1,18,19
 -72.3180465698 165.295135498 -72.3180465698 165.295135498 -34 155 c 0,20,21
 157.26373291 108 157.26373291 108 288.708007812 152.639648438 c 1,0,1
459.58203125 437.493164062 m 1,22,23
 338.506835938 395.594726562 338.506835938 395.594726562 309.801757812 321.448242188 c 1,24,25
 313.487304688 272.81640625 313.487304688 272.81640625 433.654296875 221.0625 c 1,26,27
 515.1953125 265.139648438 515.1953125 265.139648438 532.311523438 290.481445312 c 1,28,29
 510.099609375 380.0078125 510.099609375 380.0078125 459.58203125 437.493164062 c 1,22,23
618.3125 376.995117188 m 1,30,31
 615.138671875 286.368164062 615.138671875 286.368164062 551.442382812 173.1328125 c 1,32,33
 744.37890625 88.9501953125 744.37890625 88.9501953125 812.272460938 103.889648438 c 1,34,35
 780.924804688 257.83203125 780.924804688 257.83203125 618.3125 376.995117188 c 1,30,31
EndSplineSet
Fore
SplineSet
252 124 m 0,0,1
 147.0189449 228.754882812 147.0189449 228.754882812 207.416241474 363.675965178 c 0,2,3
 250.194885254 460.703094482 250.194885254 460.703094482 352 548 c 1,4,5
 363 633 363 633 394.5 667 c 0,6,7
 423.351874382 698.141705682 423.351874382 698.141705682 463.5 705 c 0,8,9
 515.769525209 713.928929613 515.769525209 713.928929613 601 646.401396168 c 0,10,11
 806.63808515 483.47572074 806.63808515 483.47572074 874 367 c 0,12,13
 954.263519877 228.216069235 954.263519877 228.216069235 914 62 c 1,14,15
 885.39685402 -38.1110109313 885.39685402 -38.1110109313 811 -57 c 0,16,17
 722.131513114 -79.8510516102 722.131513114 -79.8510516102 598 -43.9691132572 c 0,18,19
 351.825284938 25.5318726383 351.825284938 25.5318726383 252 124 c 0,0,1
110 -22 m 0,20,21
 -38 -6 -38 -6 -72 88 c 0,22,23
 -87 130 -87 130 -84 157 c 0,24,25
 -78 209 -78 209 -33 196 c 1,26,-1
 -6 190 l 1,27,28
 145.439868583 154.453528919 145.439868583 154.453528919 316.1953125 189.678710938 c 0,29,30
 472.90689698 222.01171875 472.90689698 222.01171875 534 288 c 1,31,32
 528 331 528 331 500.5 375 c 128,-1,33
 473 419 473 419 458 435 c 1,34,35
 353 394 353 394 303 324 c 1,36,37
 300.931922723 299.183072677 300.931922723 299.183072677 345 271 c 0,38,39
 508.789978929 166.770013409 508.789978929 166.770013409 717 113.075055932 c 0,40,41
 773.040689804 98.6228098753 773.040689804 98.6228098753 810 104 c 1,42,43
 788 188 788 188 736.5 251.5 c 128,-1,44
 685 315 685 315 625 373 c 1,45,46
 629.833498144 223.425730324 629.833498144 223.425730324 489.1953125 103.678710938 c 0,47,48
 332.391759679 -30.837890625 332.391759679 -30.837890625 110 -22 c 0,20,21
EndSplineSet
EndChar
StartChar: arHeh.init2
Encoding: 65590 -1 137
Width: 872
VWidth: 0
GlyphClass: 2
Flags: W
AnchorPoint: "arMarkAbove" 618 674 basechar 0
AnchorPoint: "arMarkBelow" 404 -324 basechar 0
LayerCount: 2
Back
SplineSet
578.25 -324.92578125 m 0,0,1
 576.118225098 -192.772583008 576.118225098 -192.772583008 693.87109375 -17.6396484375 c 0,2,3
 720.494934082 21.9577598572 720.494934082 21.9577598572 746.274414062 6.3447265625 c 0,4,5
 764.327575684 -4.58768081665 764.327575684 -4.58768081665 739.478515625 -48.861328125 c 0,6,7
 600.249755859 -286.925598145 600.249755859 -286.925598145 662.25 -388.92578125 c 1,8,9
 645.344848633 -300.134552002 645.344848633 -300.134552002 734.25 -292.92578125 c 0,10,11
 808.249755859 -286.925598145 808.249755859 -286.925598145 814.25 -370.92578125 c 1,12,13
 822.916564941 -465.73651123 822.916564941 -465.73651123 758.038085938 -482.6484375 c 0,14,15
 680.249755859 -502.925598145 680.249755859 -502.925598145 632.25 -458.92578125 c 0,16,17
 579.446777344 -409.887145996 579.446777344 -409.887145996 578.25 -324.92578125 c 0,0,1
EndSplineSet
Fore
SplineSet
578 -325 m 0
 576 -193 576 -193 694 -18 c 0
 721 22 721 22 742 9 c 0
 764 -4 764 -4 739 -49 c 0
 600 -287 600 -287 662 -389 c 1
 645 -300 645 -300 734 -293 c 0
 808 -287 808 -287 816 -376 c 0
 823 -465 823 -465 758 -483 c 0
 680 -503 680 -503 630 -456 c 0
 579 -410 579 -410 578 -325 c 0
EndSplineSet
Refer: 71 -1 N 1 0 0 1 0 0 3
EndChar
StartChar: arHeh.isol
Encoding: 65560 -1 68
Width: 872
VWidth: 0
GlyphClass: 2
Flags: W
AnchorPoint: "arMarkAbove" 378.771 855 basechar 0
AnchorPoint: "arMarkBelow" 463.771 -232 basechar 0
LayerCount: 2
Back
SplineSet
387.362304688 584.944335938 m 1,0,-1
 443.685546875 593.557617188 l 1,1,2
 671.102539062 194.368164062 671.102539062 194.368164062 643.387695312 85.4765625 c 1,3,4
 622.18359375 18.2900390625 622.18359375 18.2900390625 512.658691406 -10.8637695312 c 128,-1,5
 403.133789062 -40.017578125 403.133789062 -40.017578125 308.056640625 -9.1201171875 c 128,-1,6
 212.979492188 21.77734375 212.979492188 21.77734375 227.533203125 101.560546875 c 1,7,8
 247.512695312 190.630859375 247.512695312 190.630859375 359.57421875 432.131835938 c 1,9,-1
 328.958984375 467.15625 l 1,10,-1
 387.362304688 584.944335938 l 1,0,-1
416.014648438 376.877929688 m 1,11,12
 359.251953125 289.008789062 359.251953125 289.008789062 310.82421875 147.234375 c 1,13,14
 438.372070312 77.2373046875 438.372070312 77.2373046875 563.758789062 177.336914062 c 1,15,16
 490.65234375 297.044921875 490.65234375 297.044921875 416.014648438 376.877929688 c 1,11,12
EndSplineSet
Fore
SplineSet
641 10 m 0,0,1
 560 -66 560 -66 396 -64 c 0,2,3
 295 -62 295 -62 229 -12 c 1,4,5
 199 13 199 13 189 53.5 c 128,-1,6
 179 94 179 94 194 130 c 1,7,8
 214 199 214 199 248 279 c 128,-1,9
 282 359 282 359 302 405 c 128,-1,10
 322 451 322 451 328 465 c 1,11,-1
 297 501 l 1,12,13
 310 528 310 528 328.5 561.5 c 128,-1,14
 347 595 347 595 361 621 c 1,15,16
 378 624 378 624 413 629.5 c 128,-1,17
 448 635 448 635 465 637 c 1,18,19
 624 353 624 353 659.5 239 c 128,-1,20
 695 125 695 125 682 80.5 c 128,-1,21
 669 36 669 36 641 10 c 0,0,1
563 177 m 1,22,23
 511 264 511 264 416 376 c 1,24,25
 355 278 355 278 312 148 c 1,26,27
 411 89 411 89 513 146 c 0,28,29
 535 157 535 157 563 177 c 1,22,23
EndSplineSet
EndChar
StartChar: arHeh.medi
Encoding: 65575 -1 83
Width: 872
VWidth: 0
GlyphClass: 2
Flags: W
AnchorPoint: "arMarkAbove" 607 575 basechar 0
AnchorPoint: "arMarkBelow" 668 -848 basechar 0
LayerCount: 2
Back
SplineSet
876.918945312 0.2958984375 m 0,0,1
 658.608093262 -31.6170539856 658.608093262 -31.6170539856 659.196289062 -261.2734375 c 0,2,3
 659.452453613 -361.294372559 659.452453613 -361.294372559 768.799804688 -514.118164062 c 0,4,5
 774.269042969 -521.761962891 774.269042969 -521.761962891 769.203125 -529.098632812 c 2,6,-1
 676.383789062 -663.5234375 l 2,7,8
 672.623046875 -668.969909668 672.623046875 -668.969909668 666.237304688 -664.243164062 c 0,9,10
 361.7421875 -433.456054688 361.7421875 -433.456054688 426.637695312 19.5615234375 c 1,11,12
 317.061340332 -23.3298149109 317.061340332 -23.3298149109 214 -29.0199642181 c 0,13,14
 116.517341614 -34.9142913818 116.517341614 -34.9142913818 29.380859375 -4.8349609375 c 0,15,16
 -71.3522796631 30.2871513367 -71.3522796631 30.2871513367 -72.2578125 130.61328125 c 0,17,18
 -72.5844345093 166.801025391 -72.5844345093 166.801025391 -25.8740234375 154.071289062 c 0,19,20
 108.97328186 117.322090149 108.97328186 117.322090149 215 112.971679688 c 0,21,22
 416.084381104 105.948242188 416.084381104 105.948242188 577.024414062 289.122070312 c 0,23,24
 590.994140625 305.02432251 590.994140625 305.02432251 607.216796875 299.821289062 c 0,25,26
 625.290039062 294.024414062 625.290039062 294.024414062 617.560546875 267.940429688 c 0,27,28
 605.133789062 230.873046875 605.133789062 230.873046875 563.501953125 129.386230469 c 128,-1,29
 521.870117188 27.8994140625 521.870117188 27.8994140625 512.971191406 -16.3388671875 c 128,-1,30
 504.072265625 -60.5771484375 504.072265625 -60.5771484375 514.799804688 -154.564453125 c 128,-1,31
 525.52734375 -248.551757812 525.52734375 -248.551757812 577.469726562 -355.848632812 c 1,32,33
 598.018554688 158.436523438 598.018554688 158.436523438 865.42578125 157.694335938 c 0,34,35
 904.01953125 157.474609375 904.01953125 157.474609375 907.620117188 81.9423828125 c 0,36,37
 911.273742676 5.31792736053 911.273742676 5.31792736053 876.918945312 0.2958984375 c 0,0,1
EndSplineSet
Fore
SplineSet
679 -705 m 1,0,1
 656 -720 656 -720 620 -688 c 0,2,3
 608 -678 608 -678 604 -675 c 0,4,5
 337 -451 337 -451 379 -43 c 1,6,7
 216 -97 216 -97 92 -67 c 0,8,9
 32 -53 32 -53 11 -38 c 128,-1,10
 -10 -23 -10 -23 -32 5 c 0,11,12
 -83 70 -83 70 -79 138 c 1,13,14
 -79 167 -79 167 -57 166 c 128,-1,15
 -35 165 -35 165 -2 156 c 0,16,17
 174 108 174 108 305 130 c 128,-1,18
 436 152 436 152 556 279 c 0,19,20
 574 298 574 298 590 310 c 128,-1,21
 606 322 606 322 621 300 c 1,22,23
 629 283 629 283 618.5 259.5 c 128,-1,24
 608 236 608 236 588.5 192.5 c 128,-1,25
 569 149 569 149 552 106.5 c 128,-1,26
 535 64 535 64 523.5 17.5 c 128,-1,27
 512 -29 512 -29 510 -64.5 c 128,-1,28
 508 -100 508 -100 510.5 -128 c 128,-1,29
 513 -156 513 -156 522.5 -192.5 c 128,-1,30
 532 -229 532 -229 539.5 -250 c 128,-1,31
 547 -271 547 -271 560 -306.5 c 128,-1,32
 573 -342 573 -342 577 -354 c 1,33,34
 577 -121 577 -121 658 30 c 1,35,36
 711 119 711 119 781 142 c 128,-1,37
 851 165 851 165 895 152 c 1,38,39
 916 142 916 142 920 137.5 c 128,-1,40
 924 133 924 133 928.5 95 c 128,-1,41
 933 57 933 57 915 -2 c 1,42,43
 900 -25 900 -25 861.5 -32.5 c 128,-1,44
 823 -40 823 -40 775.5 -64 c 128,-1,45
 728 -88 728 -88 696 -129 c 128,-1,46
 664 -170 664 -170 665.5 -235 c 128,-1,47
 667 -300 667 -300 701.5 -365 c 128,-1,48
 736 -430 736 -430 763 -467 c 128,-1,49
 790 -504 790 -504 798 -520 c 1,50,51
 804 -541 804 -541 787 -562.5 c 128,-1,52
 770 -584 770 -584 737.5 -630.5 c 128,-1,53
 705 -677 705 -677 679 -705 c 1,0,1
EndSplineSet
EndChar
StartChar: arHeh.medi2
Encoding: 65591 -1 138
Width: 872
VWidth: 0
GlyphClass: 2
Flags: W
AnchorPoint: "arMarkAbove" 877 693 basechar 0
AnchorPoint: "arMarkBelow" 864 -608 basechar 0
LayerCount: 2
Back
SplineSet
814.85546875 62.248046875 m 1,0,1
 1012.5625 -24.541015625 1012.5625 -24.541015625 993.65625 -241.19921875 c 0,2,3
 979.474609375 -408.983398438 979.474609375 -408.983398438 850.456054688 -410.799804688 c 0,4,5
 673.65625 -413.19921875 673.65625 -413.19921875 637.65625 -78 c 1,6,-1
 590.456054688 -71.599609375 l 1,7,-1
 591.099609375 -8.5361328125 l 1,8,9
 497.440155029 -34.1108169556 497.440155029 -34.1108169556 284 -33.01953125 c 0,10,11
 106.961898804 -32.099609375 106.961898804 -32.099609375 29.380859375 -4.8349609375 c 0,12,13
 -71.3525390625 30.287109375 -71.3525390625 30.287109375 -72.2578125 130.61328125 c 0,14,15
 -72.5957717896 168.11366272 -72.5957717896 168.11366272 -25.8740234375 154.071289062 c 0,16,17
 127.631706238 110.137695312 127.631706238 110.137695312 285 107.971679688 c 0,18,19
 539.495300293 104.438476562 539.495300293 104.438476562 627.163085938 143.041992188 c 1,20,21
 697.630859375 376.614257812 697.630859375 376.614257812 798.85546875 466.200195312 c 0,22,23
 948.262695312 598.427734375 948.262695312 598.427734375 968.055664062 471.600585938 c 0,24,25
 998.85546875 274.248046875 998.85546875 274.248046875 814.85546875 62.248046875 c 1,0,1
704.055664062 -86 m 1,26,27
 760.85546875 -311.955078125 760.85546875 -311.955078125 936.055664062 -238 c 0,28,29
 955.771484375 -228.854492188 955.771484375 -228.854492188 941.65625 -206.799804688 c 0,30,31
 880.85546875 -118.799804688 880.85546875 -118.799804688 704.055664062 -86 c 1,26,27
828.85546875 344.400390625 m 0,32,33
 728.85546875 287.600585938 728.85546875 287.600585938 697.65625 163.600585938 c 1,34,35
 853.65625 225.200195312 853.65625 225.200195312 901.65625 294.80078125 c 0,36,37
 911.255859375 307.600585938 911.255859375 307.600585938 904.055664062 320.400390625 c 0,38,39
 875.877929688 370.045898438 875.877929688 370.045898438 828.85546875 344.400390625 c 0,32,33
EndSplineSet
Fore
SplineSet
669 -340 m 1,0,1
 625 -264 625 -264 602 -103 c 1,2,3
 115 -20 115 -20 348.5 -60.5 c 128,-1,4
 582 -101 582 -101 570 -99.5 c 128,-1,5
 558 -98 558 -98 551 -97 c 1,6,7
 550 -79 550 -79 551 -58 c 1,8,9
 361 -89 361 -89 113 -65 c 0,10,11
 1 -55 1 -55 -37.5 -11 c 128,-1,12
 -76 33 -76 33 -81 57.5 c 128,-1,13
 -86 82 -86 82 -86.5 84.5 c 128,-1,14
 -87 87 -87 87 -88 93 c 128,-1,15
 -89 99 -89 99 -89 102 c 128,-1,16
 -89 105 -89 105 -89.5 116.5 c 128,-1,17
 -90 128 -90 128 -75 150.5 c 128,-1,18
 -60 173 -60 173 -22 156 c 1,19,20
 82 128 82 128 152 120 c 1,21,22
 332 98 332 98 531 122 c 1,23,24
 565 128 565 128 593 136 c 1,25,26
 665 361 665 361 737.5 452 c 128,-1,27
 810 543 810 543 893 571 c 1,28,29
 956 588 956 588 992 530 c 0,30,31
 1010 501 1010 501 1012 422 c 1,32,33
 1014 251 1014 251 878 75 c 1,34,35
 993 8 993 8 1024.5 -112.5 c 128,-1,36
 1056 -233 1056 -233 1008 -351 c 1,37,38
 973 -427 973 -427 894 -447 c 128,-1,39
 815 -467 815 -467 754.5 -427.5 c 128,-1,40
 694 -388 694 -388 669 -340 c 1,0,1
945 -225 m 1,41,42
 929 -157 929 -157 791 -124 c 0,43,44
 774 -120 774 -120 743 -114 c 128,-1,45
 712 -108 712 -108 708 -107 c 1,46,47
 733 -216 733 -216 786 -254 c 1,48,49
 843 -291 843 -291 915 -253 c 0,50,51
 943 -238 943 -238 945 -225 c 1,41,42
908 308 m 1,52,53
 904 326 904 326 886.5 342.5 c 128,-1,54
 869 359 869 359 829 344 c 1,55,56
 729 291 729 291 700 166 c 1,57,58
 771 190 771 190 832 231 c 128,-1,59
 893 272 893 272 908 308 c 1,52,53
EndSplineSet
EndChar
StartChar: arKaf.init
Encoding: 65569 -1 77
Width: 872
VWidth: 0
GlyphClass: 2
Flags: W
AnchorPoint: "arMarkAbove" 729 1247 basechar 0
AnchorPoint: "arMarkBelow" 542 -204 basechar 0
LayerCount: 2
Back
SplineSet
815 141 m 1,0,1
 838.20489502 202.574874878 838.20489502 202.574874878 824.086914062 256.181640625 c 0,2,3
 809.557922363 312.965881348 809.557922363 312.965881348 648.171875 547.858398438 c 0,4,5
 483.696289062 787.249023438 483.696289062 787.249023438 398.65234375 884.130859375 c 1,6,7
 645.13671875 1034.33691406 645.13671875 1034.33691406 1080.66894531 1275.65429688 c 1,8,-1
 1089.47265625 1291.10839844 l 1,9,-1
 1089.69238281 1395.7421875 l 2,10,11
 1089.73291016 1415.0234375 1089.73291016 1415.0234375 1075.30761719 1407.18261719 c 0,12,13
 529.825378418 1110.68713379 529.825378418 1110.68713379 347.456054688 982.788085938 c 0,14,15
 317.997406006 962.128173828 317.997406006 962.128173828 309.309570312 896.073242188 c 0,16,17
 300.961151123 832.598815918 300.961151123 832.598815918 320.854492188 805.424804688 c 0,18,19
 592.621643066 434.194763184 592.621643066 434.194763184 735.180664062 211.30078125 c 1,20,21
 602.811035156 122.880111694 602.811035156 122.880111694 417.05657959 107.084182739 c 0,22,23
 219.465682983 90.2817230225 219.465682983 90.2817230225 -38.5302734375 155.654296875 c 0,24,25
 -75.7958831787 165.096878052 -75.7958831787 165.096878052 -72.275390625 123.12109375 c 0,26,27
 -63.900390625 23.2431640625 -63.900390625 23.2431640625 28.6748046875 -5.0986328125 c 0,28,29
 219.250869751 -64.1304702759 219.250869751 -64.1304702759 468.938964844 -25.6342773438 c 0,30,31
 616.846252441 -2.94601082802 616.846252441 -2.94601082802 714 45 c 0,32,33
 791 83 791 83 815 141 c 1,0,1
EndSplineSet
Fore
SplineSet
851.5 149 m 128,-1,1
 829 86 829 86 767.5 42.5 c 128,-1,2
 706 -1 706 -1 562 -36.5 c 128,-1,3
 418 -72 418 -72 297 -70 c 128,-1,4
 176 -68 176 -68 115.5 -58 c 128,-1,5
 55 -48 55 -48 -5 -23 c 1,6,7
 -37 -5 -37 -5 -59.5 34.5 c 128,-1,8
 -82 74 -82 74 -84.5 116 c 128,-1,9
 -87 158 -87 158 -55 166 c 1,10,11
 -32 167 -32 167 -10 161 c 0,12,13
 280 96 280 96 443.5 119 c 128,-1,14
 607 142 607 142 734 216 c 1,15,16
 664 323 664 323 500.5 517.5 c 128,-1,17
 337 712 337 712 279 793 c 1,18,19
 242 862 242 862 288 968 c 0,20,21
 304 1004 304 1004 325 1021 c 128,-1,22
 346 1038 346 1038 370.5 1054 c 128,-1,23
 395 1070 395 1070 432 1093 c 128,-1,24
 469 1116 469 1116 572.5 1179 c 128,-1,25
 676 1242 676 1242 1050 1446 c 1,26,27
 1095 1467 1095 1467 1102 1447 c 0,28,29
 1105 1438 1105 1438 1105 1417.5 c 128,-1,30
 1105 1397 1105 1397 1105.5 1365.5 c 128,-1,31
 1106 1334 1106 1334 1099.5 1307.5 c 128,-1,32
 1093 1281 1093 1281 1065 1265 c 0,33,34
 589 1002 589 1002 397 887 c 1,35,36
 429 848 429 848 555 700 c 0,37,38
 782 434 782 434 853 272 c 1,39,0
 874 212 874 212 851.5 149 c 128,-1,1
EndSplineSet
EndChar
StartChar: arKaf.isol
Encoding: 65556 -1 64
Width: 872
VWidth: 0
GlyphClass: 2
Flags: W
AnchorPoint: "arMarkAbove" 399 520 basechar 0
AnchorPoint: "arMarkBelow" 392 -268 basechar 0
LayerCount: 2
Back
SplineSet
831.151367188 1143.76269531 m 0,0,1
 825.200012207 1041.62316895 825.200012207 1041.62316895 866.9765625 243.1328125 c 0,2,3
 875.611022949 78.099609375 875.611022949 78.099609375 808.080078125 15.8916015625 c 1,4,5
 665.453125 -40.529296875 665.453125 -40.529296875 416.818359375 -52.9086914062 c 128,-1,6
 168.18359375 -65.2880859375 168.18359375 -65.2880859375 7.6162109375 -24.171875 c 0,7,8
 -310.717132568 57.1487922668 -310.717132568 57.1487922668 -131.177734375 405.73046875 c 0,9,10
 -118.862617493 429.640686035 -118.862617493 429.640686035 -99.58984375 419.796875 c 0,11,12
 -79.9792556763 409.780517578 -79.9792556763 409.780517578 -90.513671875 386.775390625 c 0,13,14
 -190.520965576 173.714813232 -190.520965576 173.714813232 44.4423828125 117.89453125 c 1,15,16
 182.068954468 86.2466125488 182.068954468 86.2466125488 349.516601562 87.7666015625 c 0,17,18
 619.887695312 90.2431640625 619.887695312 90.2431640625 797.97265625 164.353515625 c 1,19,-1
 727.059570312 1014.88574219 l 2,20,21
 726.215820312 1035.49682617 726.215820312 1035.49682617 735.907226562 1049.04589844 c 2,22,-1
 808.329101562 1150.29589844 l 2,23,24
 833.589782715 1185.61181641 833.589782715 1185.61181641 831.151367188 1143.76269531 c 0,0,1
EndSplineSet
Fore
SplineSet
796 168 m 1,0,-1
 721 1024 l 2,1,2
 721 1028 721 1028 721.5 1037 c 128,-1,3
 722 1046 722 1046 722 1054 c 0,4,5
 722 1062 722 1062 727 1074.5 c 128,-1,6
 732 1087 732 1087 810 1184 c 0,7,8
 826 1206 826 1206 842 1201 c 128,-1,9
 858 1196 858 1196 859 1156 c 128,-1,10
 860 1116 860 1116 861 1061.5 c 128,-1,11
 862 1007 862 1007 865 925 c 0,12,13
 868 843 868 843 882 546.5 c 128,-1,14
 896 250 896 250 897 181 c 1,15,16
 893 74 893 74 844 10 c 0,17,18
 824 -15 824 -15 785 -24 c 1,19,20
 598 -86 598 -86 346 -85 c 0,21,22
 94 -84 94 -84 -5 -49 c 0,23,24
 -242 36 -242 36 -192 256 c 0,25,26
 -175 334 -175 334 -141 398 c 0,27,28
 -129 420 -129 420 -112 424 c 128,-1,29
 -95 428 -95 428 -89 414 c 128,-1,30
 -83 400 -83 400 -92 376 c 0,31,32
 -125 300 -125 300 -110 242 c 1,33,34
 -75 142 -75 142 151 110 c 1,35,36
 417 88 417 88 556.5 109.5 c 128,-1,37
 696 131 696 131 796 168 c 1,0,-1
EndSplineSet
EndChar
StartChar: arLam.init.2
Encoding: 65582 -1 84
Width: 872
VWidth: 0
GlyphClass: 2
Flags: W
AnchorPoint: "arCursive" 0 0 exit 0
AnchorPoint: "arMarkAbove" 611 1167 basechar 0
AnchorPoint: "arMarkBelow" 820 -204 basechar 0
LayerCount: 2
Back
SplineSet
783.280273438 166.404296875 m 1,0,1
 786.666992188 70 786.666992188 70 723.44140625 -7.9267578125 c 1,2,3
 591 -43 591 -43 358.841796875 -45.2509765625 c 0,4,5
 326.725585938 -44.8642578125 326.725585938 -44.8642578125 332.284179688 -20.158203125 c 2,6,-1
 358.944335938 98.3330078125 l 1,7,8
 597.102539062 274.642578125 597.102539062 274.642578125 648 399 c 0,9,10
 724.684570312 583.45703125 724.684570312 583.45703125 684.989257812 1199.98339844 c 0,11,12
 683.8046875 1218.375 683.8046875 1218.375 699.637695312 1239.00683594 c 0,13,14
 742.654296875 1295.06347656 742.654296875 1295.06347656 763.856445312 1319.64648438 c 0,15,16
 773.21875 1330.35742188 773.21875 1330.35742188 777.360351562 1326.64257812 c 128,-1,17
 781.501953125 1322.92773438 781.501953125 1322.92773438 783.03125 1303.06445312 c 0,18,19
 799.204101562 1113.13476562 799.204101562 1113.13476562 776.166992188 778.244140625 c 0,20,21
 755 457 755 457 694 344 c 1,22,23
 647.134765625 254.524414062 647.134765625 254.524414062 492.23046875 116.350585938 c 1,24,25
 674 127 674 127 783.280273438 166.404296875 c 1,0,1
EndSplineSet
Fore
SplineSet
379 -74.5 m 128,-1,1
 319 -77 319 -77 307 -66 c 0,2,3
 295 -55 295 -55 306 -6 c 128,-1,4
 317 43 317 43 321 67 c 128,-1,5
 325 91 325 91 333 116 c 1,6,7
 421 182 421 182 481.5 236 c 128,-1,8
 542 290 542 290 588 352.5 c 128,-1,9
 634 415 634 415 652 540 c 128,-1,10
 670 665 670 665 668 821.5 c 128,-1,11
 666 978 666 978 661.5 1076 c 128,-1,12
 657 1174 657 1174 656 1213 c 1,13,14
 660 1238 660 1238 695 1281.5 c 128,-1,15
 730 1325 730 1325 754 1347.5 c 128,-1,16
 778 1370 778 1370 792.5 1361 c 128,-1,17
 807 1352 807 1352 810.5 1328 c 128,-1,18
 814 1304 814 1304 815 1283 c 128,-1,19
 816 1262 816 1262 816.5 1237 c 128,-1,20
 817 1212 817 1212 818 1199 c 0,21,22
 824 963 824 963 793 632 c 1,23,24
 781 525 781 525 714 378 c 1,25,26
 686 320 686 320 625.5 249.5 c 128,-1,27
 565 179 565 179 508 131 c 0,28,29
 500 125 500 125 511 128 c 1,30,31
 717 151 717 151 797 184 c 1,32,33
 797 112 797 112 776 55 c 128,-1,34
 755 -2 755 -2 724 -32 c 1,35,36
 657 -60 657 -60 548 -66 c 128,-1,0
 439 -72 439 -72 379 -74.5 c 128,-1,1
EndSplineSet
EndChar
StartChar: arLam.isol
Encoding: 65557 -1 65
Width: 872
VWidth: 0
GlyphClass: 2
Flags: W
AnchorPoint: "arMarkBelow" 408 -586 basechar 0
AnchorPoint: "arMarkAbove" 543 1057 basechar 0
LayerCount: 2
Back
SplineSet
889.421875 1137.41992188 m 2,0,-1
 898.313476562 44.744140625 l 2,1,2
 900.210021973 -188.3228302 900.210021973 -188.3228302 788.831054688 -270.270507812 c 0,3,4
 605.463989258 -405.183776855 605.463989258 -405.183776855 427.313476562 -435.255859375 c 0,5,6
 229.059509277 -468.721252441 229.059509277 -468.721252441 86.7900390625 -367.814453125 c 0,7,8
 -91.8670578003 -241.09286499 -91.8670578003 -241.09286499 32 206.5 c 0,9,10
 42.7484664917 245.339523315 42.7484664917 245.339523315 73 242 c 0,11,12
 99.9674682617 239.036132812 99.9674682617 239.036132812 89.0556640625 194.400390625 c 0,13,14
 30.5154819489 -40.306640625 30.5154819489 -40.306640625 73.3427734375 -135.534179688 c 0,15,16
 149.516769409 -300.668609619 149.516769409 -300.668609619 406.40625 -263.494140625 c 0,17,18
 654.28125 -227.623046875 654.28125 -227.623046875 802.41015625 -75.4755859375 c 1,19,-1
 786.165039062 1031.15527344 l 2,20,21
 785.817871094 1054.8034668 785.817871094 1054.8034668 794.998046875 1065.31542969 c 2,22,-1
 868.708984375 1149.71972656 l 2,23,24
 889.133911133 1173.10778809 889.133911133 1173.10778809 889.421875 1137.41992188 c 2,0,-1
EndSplineSet
Fore
SplineSet
329 -474 m 0,0,1
 173 -474 173 -474 51 -365 c 1,2,3
 -18 -298 -18 -298 -29 -166 c 1,4,5
 -37 -3 -37 -3 34 225 c 0,6,7
 46 262 46 262 69.5 249 c 128,-1,8
 93 236 93 236 90.5 213 c 128,-1,9
 88 190 88 190 81 159 c 0,10,11
 43 4 43 4 62 -94 c 1,12,13
 73 -140 73 -140 125 -178 c 0,14,15
 228 -256 228 -256 388 -236 c 0,16,17
 506 -221 506 -221 579 -188 c 0,18,19
 731 -121 731 -121 801 -53 c 0,20,21
 803 -52 803 -52 802.5 -44.5 c 128,-1,22
 802 -37 802 -37 801 39.5 c 128,-1,23
 800 116 800 116 779 491.5 c 128,-1,24
 758 867 758 867 757 1032 c 1,25,26
 759 1056 759 1056 773.5 1071.5 c 128,-1,27
 788 1087 788 1087 795.5 1095.5 c 128,-1,28
 803 1104 803 1104 827 1131.5 c 128,-1,29
 851 1159 851 1159 869.5 1178 c 128,-1,30
 888 1197 888 1197 897.5 1193 c 128,-1,31
 907 1189 907 1189 906 1169 c 1,32,33
 913 501 913 501 913 -6 c 1,34,35
 907 -137 907 -137 888 -188 c 0,36,37
 869 -238 869 -238 832 -272 c 128,-1,38
 795 -306 795 -306 735 -344 c 0,39,40
 528 -475 528 -475 329 -474 c 0,0,1
EndSplineSet
EndChar
StartChar: arMeem.isol
Encoding: 65558 -1 60
Width: 872
VWidth: 0
GlyphClass: 2
Flags: W
AnchorPoint: "arMarkAbove" 599 555 basechar 0
AnchorPoint: "arMarkBelow" 760 -172 basechar 0
LayerCount: 2
Back
SplineSet
547.505859375 134.573242188 m 1,0,1
 621.268554688 168.44140625 621.268554688 168.44140625 731.094726562 184.524414062 c 1,2,3
 693.499023438 265.793945312 693.499023438 265.793945312 614.9765625 262 c 1,4,5
 574.733398438 258.750976562 574.733398438 258.750976562 547.505859375 134.573242188 c 1,0,1
475.538085938 93.0302734375 m 1,6,7
 487.735351562 188.411132812 487.735351562 188.411132812 529.327148438 275.154296875 c 0,8,9
 571.625 361.923828125 571.625 361.923828125 620.381835938 379.12890625 c 0,10,11
 689.22265625 404.924804688 689.22265625 404.924804688 788.165039062 321.765625 c 0,12,13
 840.50390625 277.29296875 840.50390625 277.29296875 883.526367188 221.379882812 c 0,14,15
 896.428710938 204.873046875 896.428710938 204.873046875 894.278320312 190.544921875 c 0,16,17
 872.076171875 62.271484375 872.076171875 62.271484375 866.314453125 45.7158203125 c 0,18,19
 860.580078125 29.939453125 860.580078125 29.939453125 841.939453125 33.513671875 c 1,20,21
 629.053710938 31.2548828125 629.053710938 31.2548828125 493.965820312 -50.94921875 c 1,22,23
 483.220703125 -63.84765625 483.220703125 -63.84765625 487.520507812 -79.630859375 c 1,24,25
 493.63671875 -159.700195312 493.63671875 -159.700195312 550.595703125 -443.795410156 c 128,-1,26
 607.5546875 -727.890625 607.5546875 -727.890625 596.446289062 -811.4375 c 0,27,28
 591.86328125 -838.322265625 591.86328125 -838.322265625 575.275390625 -838.207519531 c 128,-1,29
 558.6875 -838.092773438 558.6875 -838.092773438 555.137695312 -811.84765625 c 1,30,31
 541.514648438 -669.860351562 541.514648438 -669.860351562 494.185546875 -484.162109375 c 0,32,33
 406.712890625 -147.16796875 406.712890625 -147.16796875 418.907226562 -63.283203125 c 0,34,35
 435.38671875 49.3046875 435.38671875 49.3046875 475.538085938 93.0302734375 c 1,6,7
EndSplineSet
Fore
SplineSet
550 -819 m 0,0,1
 547 -810 547 -810 535 -744.5 c 128,-1,2
 523 -679 523 -679 479 -524 c 128,-1,3
 435 -369 435 -369 405 -235 c 0,4,5
 353 -4 353 -4 448 101 c 1,6,7
 476 268 476 268 549 362 c 0,8,9
 600 428 600 428 691 412 c 0,10,11
 740 403 740 403 809.5 343 c 128,-1,12
 879 283 879 283 919 220 c 1,13,14
 928 199 928 199 921.5 168.5 c 128,-1,15
 915 138 915 138 908 95.5 c 128,-1,16
 901 53 901 53 888 23 c 1,17,18
 873 0 873 0 816 1 c 128,-1,19
 759 2 759 2 670.5 -17 c 128,-1,20
 582 -36 582 -36 537.5 -56.5 c 128,-1,21
 493 -77 493 -77 491 -81.5 c 128,-1,22
 489 -86 489 -86 496.5 -150.5 c 128,-1,23
 504 -215 504 -215 548 -427.5 c 128,-1,24
 592 -640 592 -640 602 -787 c 1,25,26
 599 -841 599 -841 579 -843.5 c 128,-1,27
 559 -846 559 -846 550 -819 c 0,0,1
549 140 m 1,28,29
 609 171 609 171 726 188 c 1,30,31
 712 222 712 222 678 244 c 128,-1,32
 644 266 644 266 608 257 c 0,33,34
 576 247 576 247 549 140 c 1,28,29
EndSplineSet
EndChar
StartChar: arMem.init
Encoding: 65571 -1 79
Width: 872
VWidth: 0
GlyphClass: 2
Flags: W
AnchorPoint: "arMarkAbove" 663 700 basechar 0
AnchorPoint: "arMarkBelow" 676 -266 basechar 0
LayerCount: 2
Back
SplineSet
497.188476562 188.022460938 m 1,0,1
 583.772460938 460.202148438 583.772460938 460.202148438 695.943847656 441.147460938 c 128,-1,2
 808.115234375 422.092773438 808.115234375 422.092773438 831.12890625 102.197265625 c 0,3,4
 833.10546875 74.4892578125 833.10546875 74.4892578125 828.521484375 58.2958984375 c 0,5,6
 758.645507812 -188.528320312 758.645507812 -188.528320312 505.640625 101.274414062 c 1,7,8
 346.218170166 -114.196487427 346.218170166 -114.196487427 20.3720703125 -0.37109375 c 0,9,10
 -62.3730621338 28.4041461945 -62.3730621338 28.4041461945 -69.3349609375 124.619140625 c 0,11,12
 -72.5380859375 168.821289062 -72.5380859375 168.821289062 -28.9931640625 156.450195312 c 0,13,14
 374.169647217 40.9443359375 374.169647217 40.9443359375 497.188476562 188.022460938 c 1,0,1
569.654296875 205.380859375 m 1,15,16
 706.534179688 62.216796875 706.534179688 62.216796875 763.189453125 97.7587890625 c 1,17,18
 742.135742188 234.18359375 742.135742188 234.18359375 697.666992188 282.362304688 c 128,-1,19
 653.198242188 330.541015625 653.198242188 330.541015625 569.654296875 205.380859375 c 1,15,16
EndSplineSet
Fore
SplineSet
789 -77 m 1,0,1
 708 -128 708 -128 594 -40 c 0,2,3
 560 -15 560 -15 507 40 c 1,4,5
 389 -90 389 -90 191 -80 c 0,6,7
 90 -75 90 -75 -22 -25 c 1,8,9
 -71 5 -71 5 -84 76 c 0,10,11
 -85 78 -85 78 -92.5 114 c 128,-1,12
 -100 150 -100 150 -84 162 c 128,-1,13
 -68 174 -68 174 -56 174 c 128,-1,14
 -44 174 -44 174 -23 167 c 0,15,16
 218 98 218 98 355 125 c 0,17,18
 413 135 413 135 443 158 c 1,19,20
 448 164 448 164 470 235 c 0,21,22
 519 389 519 389 601 455 c 1,23,24
 661 499 661 499 722.5 475 c 128,-1,25
 784 451 784 451 814 381 c 1,26,27
 842 321 842 321 851 265 c 0,28,29
 880 80 880 80 858 17.5 c 128,-1,30
 836 -45 836 -45 789 -77 c 1,0,1
759 99 m 1,31,32
 755 153 755 153 732 217 c 0,33,34
 709 280 709 280 677 295 c 128,-1,35
 645 310 645 310 573 205 c 1,36,37
 673 97 673 97 729 95 c 0,38,39
 744 95 744 95 759 99 c 1,31,32
EndSplineSet
EndChar
StartChar: arNoon.isol
Encoding: 65559 -1 67
Width: 872
VWidth: 0
GlyphClass: 2
Flags: W
AnchorPoint: "arMarkAbove" 475 589 basechar 0
AnchorPoint: "arMarkBelow" 464 -542 basechar 0
LayerCount: 2
Back
SplineSet
812.82421875 339.978515625 m 2,0,1
 823.555664062 356.534179688 823.555664062 356.534179688 829.904296875 340.65234375 c 0,2,3
 921.302734375 78.2763671875 921.302734375 78.2763671875 869.997070312 -105.802734375 c 1,4,5
 788.556640625 -320.622070312 788.556640625 -320.622070312 433.40625 -354.912109375 c 0,6,7
 46.072265625 -393.260742188 46.072265625 -393.260742188 7.462890625 -153.87890625 c 1,8,9
 -27.8525390625 46.9951171875 -27.8525390625 46.9951171875 78 232 c 0,10,11
 91.9072265625 256.307617188 91.9072265625 256.307617188 115 241 c 0,12,13
 133.0703125 229.021484375 133.0703125 229.021484375 122 208 c 0,14,15
 54.29296875 69.2783203125 54.29296875 69.2783203125 74.3818359375 -33.703125 c 0,16,17
 105.383789062 -197.15234375 105.383789062 -197.15234375 360.438476562 -201.306640625 c 0,18,19
 611.311523438 -205.392578125 611.311523438 -205.392578125 812.311523438 -38.5078125 c 1,20,21
 783.814453125 123.424804688 783.814453125 123.424804688 739.274414062 207.498046875 c 0,22,23
 733.732421875 217.958984375 733.732421875 217.958984375 739.494140625 226.848632812 c 2,24,-1
 812.82421875 339.978515625 l 2,0,1
EndSplineSet
Fore
SplineSet
286 -394.5 m 128,-1,1
 181 -393 181 -393 90 -339 c 1,2,3
 2 -273 2 -273 -10 -150 c 1,4,5
 -21 70 -21 70 66 222 c 1,6,7
 88 256 88 256 109 247 c 0,8,9
 142 232 142 232 115 188 c 1,10,11
 66 86 66 86 74 -10 c 0,12,13
 83 -106 83 -106 193 -158 c 0,14,15
 264 -192 264 -192 383.5 -188.5 c 128,-1,16
 503 -185 503 -185 615.5 -144.5 c 128,-1,17
 728 -104 728 -104 806 -41 c 1,18,19
 812 -39 812 -39 809 -34 c 1,20,21
 788 81 788 81 726 205 c 1,22,23
 709 225 709 225 735 265 c 128,-1,24
 761 305 761 305 787 347 c 128,-1,25
 813 389 813 389 821.5 394.5 c 128,-1,26
 830 400 830 400 840 390 c 128,-1,27
 850 380 850 380 867 327 c 0,28,29
 902 222 902 222 894 10 c 0,30,31
 891 -64 891 -64 873 -119 c 1,32,33
 827 -248 827 -248 718.5 -309 c 128,-1,34
 610 -370 610 -370 500.5 -383 c 128,-1,0
 391 -396 391 -396 286 -394.5 c 128,-1,1
EndSplineSet
EndChar
StartChar: arQaf.isol
Encoding: 65555 -1 63
Width: 872
VWidth: 0
GlyphClass: 2
Flags: W
AnchorPoint: "arMarkAbove" 699 589 basechar 0
AnchorPoint: "arMarkBelow" 688 -500 basechar 0
LayerCount: 2
Back
SplineSet
689.44921875 408.572265625 m 0,0,1
 790.151367188 413.030273438 790.151367188 413.030273438 850.274414062 259.619140625 c 0,2,3
 912.31652832 101.308639526 912.31652832 101.308639526 892.051757812 -33.1220703125 c 0,4,5
 875.121398926 -145.43296814 875.121398926 -145.43296814 771.705078125 -238.048828125 c 0,6,7
 583.436523438 -406.655181885 583.436523438 -406.655181885 282.309570312 -378.211914062 c 0,8,9
 154.635742188 -366.15234375 154.635742188 -366.15234375 66.1875 -273.575195312 c 1,10,11
 -24.4953804016 -168.87940979 -24.4953804016 -168.87940979 -14.33984375 -27.1455078125 c 1,12,13
 -3.14152550697 109.247665405 -3.14152550697 109.247665405 42 198.5 c 0,14,15
 54.6273841858 223.466445923 54.6273841858 223.466445923 77.9955215454 217.20098877 c 128,-1,16
 101.36365509 210.935546875 101.36365509 210.935546875 91.9990234375 187.322265625 c 0,17,18
 -2.59127902985 -57.4315032959 -2.59127902985 -57.4315032959 147.603515625 -174.127929688 c 0,19,20
 278.657653809 -276.648925781 278.657653809 -276.648925781 514.770507812 -213.818359375 c 0,21,22
 756.610839844 -149.462677002 756.610839844 -149.462677002 834.102539062 10.4716796875 c 0,23,24
 837.576599121 17.6417446136 837.576599121 17.6417446136 823.189453125 47.0927734375 c 1,25,26
 682.932617188 -40.2255859375 682.932617188 -40.2255859375 595.408203125 4.5595703125 c 0,27,28
 511.651947021 47.4166030884 511.651947021 47.4166030884 532.344726562 179.631835938 c 0,29,30
 567.329711914 403.166137695 567.329711914 403.166137695 689.44921875 408.572265625 c 0,0,1
794.185546875 163.826171875 m 1,31,32
 752.74609375 261.732421875 752.74609375 261.732421875 693.87109375 279.303222656 c 128,-1,33
 634.99609375 296.874023438 634.99609375 296.874023438 586.3828125 174.329101562 c 1,34,35
 575.083984375 133.514648438 575.083984375 133.514648438 635.495117188 121.217773438 c 0,36,37
 727.806640625 102.427734375 727.806640625 102.427734375 794.185546875 163.826171875 c 1,31,32
EndSplineSet
Fore
SplineSet
158 -376 m 1,0,1
 49 -328 49 -328 3.5 -209 c 128,-1,2
 -42 -90 -42 -90 -12.5 33 c 128,-1,3
 17 156 17 156 33.5 188 c 128,-1,4
 50 220 50 220 67.5 223.5 c 128,-1,5
 85 227 85 227 91.5 212.5 c 128,-1,6
 98 198 98 198 88 170 c 0,7,8
 11 -38 11 -38 146 -158 c 0,9,10
 209 -214 209 -214 277 -220 c 1,11,12
 408 -237 408 -237 567 -190 c 0,13,14
 624 -172 624 -172 698 -123.5 c 128,-1,15
 772 -75 772 -75 818 -21 c 1,16,17
 830 -2 830 -2 817 36 c 1,18,19
 643 -51 643 -51 552 26 c 0,20,21
 519 54 519 54 504 103 c 128,-1,22
 489 152 489 152 510 255.5 c 128,-1,23
 531 359 531 359 583 418 c 1,24,25
 612 449 612 449 654 461 c 0,26,27
 746 488 746 488 804 407 c 128,-1,28
 862 326 862 326 885.5 189.5 c 128,-1,29
 909 53 909 53 889 -73 c 1,30,31
 838 -226 838 -226 694.5 -316 c 128,-1,32
 551 -406 551 -406 399 -412 c 128,-1,33
 247 -418 247 -418 158 -376 c 1,0,1
791 193 m 1,34,35
 780 225 780 225 743.5 267 c 128,-1,36
 707 309 707 309 675.5 305.5 c 128,-1,37
 644 302 644 302 614.5 255.5 c 128,-1,38
 585 209 585 209 587 182 c 1,39,40
 591 163 591 163 626.5 153 c 128,-1,41
 662 143 662 143 711 152.5 c 128,-1,42
 760 162 760 162 791 193 c 1,34,35
EndSplineSet
EndChar
StartChar: arReh.isol
Encoding: 65549 -1 57
Width: 872
VWidth: 0
GlyphClass: 2
Flags: W
AnchorPoint: "arMarkAbove" 735 649 basechar 0
AnchorPoint: "arMarkBelow" 540 -544 basechar 0
LayerCount: 2
Back
SplineSet
763.391601562 421.599609375 m 2,0,1
 768.013671875 429.62109375 768.013671875 429.62109375 771.9609375 421.995117188 c 0,2,3
 904.139648438 208.444335938 904.139648438 208.444335938 846.541992188 -19.3969726562 c 128,-1,4
 788.944335938 -247.23828125 788.944335938 -247.23828125 545.071289062 -368.668945312 c 1,5,6
 362.20703125 -440.311523438 362.20703125 -440.311523438 138.4453125 -343.942382812 c 0,7,8
 84.337890625 -320.469726562 84.337890625 -320.469726562 88.2392578125 -296.862304688 c 0,9,10
 91.3447265625 -278.073242188 91.3447265625 -278.073242188 147.073242188 -280.587890625 c 0,11,12
 380.2265625 -289.122070312 380.2265625 -289.122070312 544.360351562 -219.283203125 c 0,13,14
 744.139648438 -134.27734375 744.139648438 -134.27734375 796.223632812 1.74609375 c 1,15,16
 781.543945312 164.655273438 781.543945312 164.655273438 699.590820312 300.413085938 c 0,17,18
 696.526367188 305.563476562 696.526367188 305.563476562 700.235351562 312 c 2,19,-1
 763.391601562 421.599609375 l 2,0,1
EndSplineSet
Fore
SplineSet
87 -326 m 1,0,1
 42 -299 42 -299 60.5 -275.5 c 128,-1,2
 79 -252 79 -252 107 -251 c 128,-1,3
 135 -250 135 -250 178 -251.5 c 128,-1,4
 221 -253 221 -253 242 -251 c 1,5,6
 447 -244 447 -244 599 -160 c 0,7,8
 601 -159 601 -159 617 -150 c 128,-1,9
 633 -141 633 -141 637.5 -138.5 c 128,-1,10
 642 -136 642 -136 657 -127.5 c 128,-1,11
 672 -119 672 -119 678 -115 c 128,-1,12
 684 -111 684 -111 697.5 -102.5 c 128,-1,13
 711 -94 711 -94 718 -88.5 c 128,-1,14
 725 -83 725 -83 736 -74.5 c 128,-1,15
 747 -66 747 -66 772 -39 c 128,-1,16
 797 -12 797 -12 796 -0.5 c 128,-1,17
 795 11 795 11 791 47 c 0,18,19
 783 122 783 122 682 293 c 1,20,21
 673 311 673 311 676 325 c 0,22,23
 678 339 678 339 749 450 c 0,24,25
 771 483 771 483 801 432 c 1,26,27
 883 299 883 299 871 110 c 1,28,29
 865 6 865 6 829 -95.5 c 128,-1,30
 793 -197 793 -197 743 -248 c 128,-1,31
 693 -299 693 -299 644.5 -341 c 128,-1,32
 596 -383 596 -383 521 -407.5 c 128,-1,33
 446 -432 446 -432 311.5 -404 c 128,-1,34
 177 -376 177 -376 87 -326 c 1,0,1
EndSplineSet
EndChar
StartChar: arSad.init
Encoding: 65566 -1 67
Width: 872
VWidth: 0
GlyphClass: 2
Flags: W
AnchorPoint: "arMarkAbove" 495 700 basechar 0
AnchorPoint: "arMarkBelow" 532 -240 basechar 0
LayerCount: 2
Back
SplineSet
752.651367188 451.447265625 m 0,0,1
 897.786193848 444.515625 897.786193848 444.515625 932.329101562 329.411132812 c 0,2,3
 962.177978516 229.948196411 962.177978516 229.948196411 852.01171875 118.737304688 c 0,4,5
 690.552490234 -44.252910614 690.552490234 -44.252910614 429.301757812 9.1083984375 c 0,6,7
 343.24609375 26.685546875 343.24609375 26.685546875 294.213867188 107.868164062 c 1,8,9
 265.042694092 61.9915046692 265.042694092 61.9915046692 202.2578125 19.537109375 c 0,10,11
 126.570747375 -31.6416015625 126.570747375 -31.6416015625 27 -3.783203125 c 1,12,13
 -63.6805801392 20.2172393799 -63.6805801392 20.2172393799 -72.912109375 128 c 0,14,15
 -76.4059066772 172.75793457 -76.4059066772 172.75793457 -23 150.624023438 c 1,16,17
 178.106689453 63.025390625 178.106689453 63.025390625 311.689453125 258.659179688 c 0,18,19
 327.376434326 281.474151611 327.376434326 281.474151611 341.879882812 254.557617188 c 2,20,-1
 384.66796875 175.1484375 l 1,21,22
 567.837890625 460.273986816 567.837890625 460.273986816 752.651367188 451.447265625 c 0,0,1
696.9140625 329.118164062 m 1,23,24
 567.1484375 327.614257812 567.1484375 327.614257812 425.0390625 145.807617188 c 1,25,26
 473.8984375 109.416015625 473.8984375 109.416015625 636.244140625 137.848144531 c 128,-1,27
 798.58984375 166.280273438 798.58984375 166.280273438 847.734375 224.381835938 c 0,28,29
 859.501953125 237.778320312 859.501953125 237.778320312 842.822265625 264.319335938 c 0,30,31
 796.990539551 337.240631104 796.990539551 337.240631104 696.9140625 329.118164062 c 1,23,24
EndSplineSet
Fore
SplineSet
-27 7 m 1,0,1
 -85 59 -85 59 -78 148 c 1,2,3
 -71 185 -71 185 -62.5 187 c 128,-1,4
 -54 189 -54 189 -41 187.5 c 128,-1,5
 -28 186 -28 186 1.5 173.5 c 128,-1,6
 31 161 31 161 59 155 c 128,-1,7
 87 149 87 149 132 157.5 c 128,-1,8
 177 166 177 166 212.5 193.5 c 128,-1,9
 248 221 248 221 294 283 c 1,10,11
 316 317 316 317 363 220 c 0,12,13
 367 212 367 212 368 209 c 1,14,15
 596 539 596 539 828 470 c 0,16,17
 897 450 897 450 939 383 c 1,18,19
 983 308 983 308 910 191 c 1,20,21
 849 83 849 83 778 27 c 1,22,23
 662 -52 662 -52 489 -31 c 0,24,25
 351 -14 351 -14 290 101 c 1,26,27
 288 99 288 99 265 73 c 0,28,29
 191 -11 191 -11 138 -22 c 1,30,31
 31 -39 31 -39 -27 7 c 1,0,1
851 236 m 1,32,33
 810 310 810 310 751 324 c 0,34,35
 722 331 722 331 684 328 c 1,36,37
 552 310 552 310 429 146 c 1,38,39
 477 117 477 117 639 144 c 0,40,41
 706 155 706 155 767.5 180 c 128,-1,42
 829 205 829 205 851 236 c 1,32,33
EndSplineSet
EndChar
StartChar: arSad.mark
Encoding: 65585 -1 124
Width: 872
VWidth: 0
GlyphClass: 4
Flags: W
AnchorPoint: "arMarkAbove" 438 0 mark 0
LayerCount: 2
Back
SplineSet
239.372070312 59.8134765625 m 1,0,-1
 322.817382812 175.735351562 l 1,1,2
 330.080078125 188.21875 330.080078125 188.21875 337.912109375 173.684570312 c 2,3,-1
 359.306640625 133.98046875 l 1,4,5
 449.10546875 273.76171875 449.10546875 273.76171875 543.297851562 272.129882812 c 0,6,7
 616.374023438 270.864257812 616.374023438 270.864257812 633.13671875 211.111328125 c 0,8,9
 647.587890625 159.598632812 647.587890625 159.598632812 592.978515625 105.774414062 c 0,10,11
 512.852539062 24.888671875 512.852539062 24.888671875 381.623046875 50.9599609375 c 0,12,13
 338.595703125 59.7490234375 338.595703125 59.7490234375 314.079101562 100.33984375 c 1,14,-1
 258.372070312 44.470703125 l 2,15,16
 250.276367188 36.3515625 250.276367188 36.3515625 240.372070312 42.1796875 c 0,17,18
 231.836914062 47.6064453125 231.836914062 47.6064453125 239.372070312 59.8134765625 c 1,0,-1
515.4296875 210.96484375 m 1,19,20
 450.546875 210.212890625 450.546875 210.212890625 379.4921875 119.309570312 c 1,21,22
 403.921875 101.114257812 403.921875 101.114257812 485.094726562 115.330078125 c 128,-1,23
 566.267578125 129.545898438 566.267578125 129.545898438 590.83984375 158.596679688 c 0,24,25
 596.723632812 165.294921875 596.723632812 165.294921875 588.383300781 178.565429688 c 128,-1,26
 580.04296875 191.8359375 580.04296875 191.8359375 559.545898438 202.358886719 c 128,-1,27
 539.048828125 212.881835938 539.048828125 212.881835938 515.4296875 210.96484375 c 1,19,20
EndSplineSet
Fore
SplineSet
635 261 m 1,0,1
 683 195 683 195 576 84 c 0,2,3
 521 26 521 26 446 22.5 c 128,-1,4
 371 19 371 19 331 50 c 0,5,6
 316 61 316 61 294 84 c 1,7,8
 290 80 290 80 258 47 c 0,9,10
 226 14 226 14 225.5 31 c 128,-1,11
 225 48 225 48 236 68 c 0,12,13
 307 193 307 193 323 191 c 1,14,15
 329 186 329 186 333.5 175.5 c 128,-1,16
 338 165 338 165 340 162 c 128,-1,17
 342 159 342 159 347 150 c 1,18,19
 419 245 419 245 468 276.5 c 128,-1,20
 517 308 517 308 566 296.5 c 128,-1,21
 615 285 615 285 635 261 c 1,0,1
377 123 m 1,22,23
 369 118 369 118 383.5 112 c 128,-1,24
 398 106 398 106 451 106.5 c 128,-1,25
 504 107 504 107 547 127.5 c 128,-1,26
 590 148 590 148 596 161 c 1,27,28
 598 171 598 171 581 192.5 c 128,-1,29
 564 214 564 214 522.5 215 c 128,-1,30
 481 216 481 216 451.5 196 c 128,-1,31
 422 176 422 176 377 123 c 1,22,23
EndSplineSet
EndChar
StartChar: arSeen.isol
Encoding: 65550 -1 52
Width: 872
VWidth: 0
GlyphClass: 2
Flags: W
AnchorPoint: "arMarkAbove" 614 700 basechar 0
AnchorPoint: "arMarkBelow" 665 -262 basechar 0
LayerCount: 2
Back
SplineSet
360.884765625 -21.6982421875 m 1,0,1
 399.335235596 -26.5823612213 399.335235596 -26.5823612213 448.366210938 -24.53125 c 0,2,3
 528.624023438 -21.173828125 528.624023438 -21.173828125 564.079101562 21.0546875 c 1,4,5
 633.512695312 -26.16015625 633.512695312 -26.16015625 784.97265625 -22.6123046875 c 0,6,7
 848.248046875 -21.16015625 848.248046875 -21.16015625 870.541015625 111.147460938 c 128,-1,8
 892.833984375 243.455078125 892.833984375 243.455078125 858.903320312 334.39453125 c 1,9,-1
 797.897460938 264.375 l 2,10,11
 791.59954834 257.146606445 791.59954834 257.146606445 794.6015625 246.38671875 c 0,12,13
 823.299804688 143.513671875 823.299804688 143.513671875 816.217773438 105.092773438 c 1,14,15
 688.388671875 84.3408203125 688.388671875 84.3408203125 626.510742188 139.23828125 c 1,16,-1
 656.30078125 282.260742188 l 2,17,18
 661.121948242 305.407287598 661.121948242 305.407287598 641.141601562 315.194335938 c 0,19,20
 616.469726562 327.255859375 616.469726562 327.255859375 609.064453125 304.86328125 c 0,21,22
 575.881469727 202.707138062 575.881469727 202.707138062 548.864257812 143.618164062 c 0,23,24
 536.872253418 117.349609375 536.872253418 117.349609375 449.729492188 117.749023438 c 0,25,26
 390.394042969 117.614601135 390.394042969 117.614601135 362.254882812 142.413085938 c 0,27,28
 314.322143555 184.655273438 314.322143555 184.655273438 264.743164062 297.107421875 c 0,29,30
 254.672561646 320.488800049 254.672561646 320.488800049 244.557617188 297.48828125 c 2,31,-1
 192.951171875 180.139648438 l 1,32,33
 309.203979492 -39.3447265625 309.203979492 -39.3447265625 279.674804688 -154.323242188 c 1,34,35
 132.708007812 -327.251953125 132.708007812 -327.251953125 -133.654296875 -314.55859375 c 128,-1,36
 -400.016601562 -301.865234375 -400.016601562 -301.865234375 -373.059570312 -45.9541015625 c 0,37,38
 -366.276367188 18.5185546875 -366.276367188 18.5185546875 -323.166992188 140.901367188 c 0,39,40
 -312.3359375 171.661132812 -312.3359375 171.661132812 -332.014648438 180.153320312 c 0,41,42
 -353.47265625 189.4140625 -353.47265625 189.4140625 -368.943359375 159.958984375 c 0,43,44
 -452.92578125 0.056640625 -452.92578125 0.056640625 -445.4375 -175.358398438 c 0,45,46
 -433.727539062 -449.674804688 -433.727539062 -449.674804688 -138.259765625 -453.590820312 c 0,47,48
 147.968276978 -457.384765625 147.968276978 -457.384765625 277.331054688 -291.139648438 c 0,49,50
 339.8359375 -210.814453125 339.8359375 -210.814453125 360.884765625 -21.6982421875 c 1,0,1
EndSplineSet
Fore
SplineSet
277 -150 m 1,0,1
 268 -15 268 -15 169 173 c 1,2,3
 185 204 185 204 234 322 c 0,4,5
 246 350 246 350 266 322 c 0,6,7
 270 316 270 316 276 305 c 0,8,9
 320 206 320 206 371 154 c 1,10,11
 391 135 391 135 440 133.5 c 128,-1,12
 489 132 489 132 504 136.5 c 128,-1,13
 519 141 519 141 522 146 c 128,-1,14
 525 151 525 151 527.5 158.5 c 128,-1,15
 530 166 530 166 536 180 c 128,-1,16
 542 194 542 194 557.5 249 c 128,-1,17
 573 304 573 304 585 331 c 1,18,19
 595 348 595 348 618 344 c 128,-1,20
 641 340 641 340 652 334 c 128,-1,21
 663 328 663 328 662 313.5 c 128,-1,22
 661 299 661 299 655.5 274 c 128,-1,23
 650 249 650 249 648 238 c 128,-1,24
 646 227 646 227 638.5 192 c 128,-1,25
 631 157 631 157 628 142 c 1,26,27
 686 100 686 100 819 113 c 1,28,29
 816 139 816 139 800.5 185.5 c 128,-1,30
 785 232 785 232 780.5 246.5 c 128,-1,31
 776 261 776 261 780.5 269 c 128,-1,32
 785 277 785 277 804.5 300 c 128,-1,33
 824 323 824 323 845 346.5 c 128,-1,34
 866 370 866 370 869 373 c 1,35,36
 889 340 889 340 899.5 270.5 c 128,-1,37
 910 201 910 201 899.5 116.5 c 128,-1,38
 889 32 889 32 859 -14 c 0,39,40
 829 -61 829 -61 743 -56 c 0,41,42
 657 -51 657 -51 614.5 -30.5 c 128,-1,43
 572 -10 572 -10 563 11 c 1,44,45
 523 -51 523 -51 402 -52 c 0,46,47
 379 -52 379 -52 364 -52 c 1,48,49
 345 -185 345 -185 309 -255 c 128,-1,50
 273 -325 273 -325 221 -379 c 0,51,52
 115 -489 115 -489 -130 -488 c 128,-1,53
 -375 -487 -375 -487 -430 -327 c 0,54,55
 -446 -280 -446 -280 -452 -225 c 1,56,57
 -459 -86 -459 -86 -407 77 c 0,58,59
 -389 132 -389 132 -375.5 158.5 c 128,-1,60
 -362 185 -362 185 -342 189.5 c 128,-1,61
 -322 194 -322 194 -318.5 179 c 128,-1,62
 -315 164 -315 164 -317.5 153.5 c 128,-1,63
 -320 143 -320 143 -326.5 128.5 c 128,-1,64
 -333 114 -333 114 -335 108 c 0,65,66
 -379 -23 -379 -23 -373 -112 c 1,67,68
 -369 -148 -369 -148 -331.5 -193.5 c 128,-1,69
 -294 -239 -294 -239 -250.5 -259.5 c 128,-1,70
 -207 -280 -207 -280 -138 -284 c 1,71,72
 -5 -295 -5 -295 110.5 -253 c 128,-1,73
 226 -211 226 -211 277 -150 c 1,0,1
EndSplineSet
EndChar
StartChar: arSharta.kaf
Encoding: 65587 -1 134
Width: 872
VWidth: 0
GlyphClass: 4
Flags: W
AnchorPoint: "arMarkAbove" 438 0 mark 0
LayerCount: 2
Back
SplineSet
100.018554688 -117.869140625 m 0,0,1
 346.502929688 32.3369140625 346.502929688 32.3369140625 782.03515625 273.654296875 c 0,2,3
 790.740234375 278.055664062 790.740234375 278.055664062 790.838867188 289.108398438 c 2,4,-1
 791.05859375 313.7421875 l 2,5,6
 791.231445312 333.095703125 791.231445312 333.095703125 776.673828125 325.182617188 c 0,7,8
 194.713867188 8 194.713867188 8 85.3662109375 -76 c 0,9,10
 79.6357421875 -80.2470703125 79.6357421875 -80.2470703125 81.32421875 -93.9296875 c 2,11,-1
 83.4736328125 -111.342773438 l 2,12,13
 85.380859375 -126.790039062 85.380859375 -126.790039062 100.018554688 -117.869140625 c 0,0,1
EndSplineSet
Fore
SplineSet
80 -129.5 m 128,-1,1
 79 -125 79 -125 76.5 -99.5 c 128,-1,2
 74 -74 74 -74 74.5 -67.5 c 128,-1,3
 75 -61 75 -61 85 -54 c 1,4,5
 367 128 367 128 773 342 c 1,6,7
 780 343 780 343 784.5 345 c 128,-1,8
 789 347 789 347 791.5 339 c 128,-1,9
 794 331 794 331 794.5 317.5 c 128,-1,10
 795 304 795 304 795 288 c 0,11,12
 796 271 796 271 789 266 c 0,13,14
 693 209 693 209 454 73 c 128,-1,15
 215 -63 215 -63 154 -99 c 128,-1,16
 93 -135 93 -135 87 -134.5 c 128,-1,0
 81 -134 81 -134 80 -129.5 c 128,-1,1
EndSplineSet
EndChar
StartChar: arTah.init
Encoding: 65588 -1 161
Width: 872
VWidth: 0
GlyphClass: 2
Flags: W
AnchorPoint: "arMarkBelow" 448 -220 basechar 0
AnchorPoint: "arMarkAbove" 537 775 basechar 0
LayerCount: 2
Back
SplineSet
430 140 m 5,0,1
 346 214 346 214 347 313 c 5,2,3
 345 457 345 457 425 540 c 4,4,5
 475 591 475 591 543 604 c 132,-1,6
 611 617 611 617 676 572.5 c 132,-1,7
 741 528 741 528 772 483 c 4,8,9
 773 481 773 481 776 476.5 c 132,-1,10
 779 472 779 472 780 470 c 132,-1,11
 781 468 781 468 783.5 463.5 c 132,-1,12
 786 459 786 459 786.5 456.5 c 132,-1,13
 787 454 787 454 788 449 c 4,14,15
 792 429 792 429 746 436 c 4,16,17
 636 452 636 452 574 431.5 c 132,-1,18
 512 411 512 411 436 351 c 5,19,20
 520 263 520 263 622 220 c 4,21,22
 683 195 683 195 757 211 c 5,23,24
 176 50 176 50 936 260 c 5,25,26
 965 266 965 266 965 250 c 4,27,28
 964 229 964 229 952.5 197 c 132,-1,29
 941 165 941 165 928 123.5 c 132,-1,30
 915 82 915 82 903 58 c 5,31,32
 889 35 889 35 848.5 18 c 132,-1,33
 808 1 808 1 656 -36 c 132,-1,34
 504 -73 504 -73 306.5 -72 c 132,-1,35
 109 -71 109 -71 -7 -27 c 5,36,37
 -46 -10 -46 -10 -62 52.5 c 132,-1,38
 -78 115 -78 115 -75 148 c 132,-1,39
 -72 181 -72 181 -55.5 185 c 132,-1,40
 -39 189 -39 189 -22 185 c 4,41,42
 202 128 202 128 418 138 c 5,43,-1
 430 140 l 5,0,1
EndSplineSet
Fore
SplineSet
894 190 m 0,0,1
 780.468585778 -33.1139096878 780.468585778 -33.1139096878 364 -58 c 0,2,3
 197.877165647 -67.9266739432 197.877165647 -67.9266739432 21 -40 c 0,4,5
 -36.6896355999 -30.8915340349 -36.6896355999 -30.8915340349 -52 19.5 c 1,6,7
 -60.6300268352 66.6255991523 -60.6300268352 66.6255991523 -76 139 c 24,8,9
 -82.7458211061 170.764841457 -82.7458211061 170.764841457 -52 165 c 0,10,11
 64.5 145 64.5 145 181 125 c 1,12,13
 195 139 195 139 193 146 c 1,14,15
 182 505 182 505 164.5 794 c 128,-1,16
 147 1083 147 1083 148 1088 c 128,-1,17
 149 1093 149 1093 152 1097.5 c 128,-1,18
 155 1102 155 1102 157 1104.5 c 128,-1,19
 159 1107 159 1107 165.5 1113 c 128,-1,20
 172 1119 172 1119 194 1139 c 128,-1,21
 216 1159 216 1159 241.5 1185 c 128,-1,22
 267 1211 267 1211 270 1171 c 0,23,24
 301.512639331 719.12109375 301.512639331 719.12109375 295 444 c 0,25,26
 294 401 294 401 276 234 c 1,27,28
 376.625 334.625 376.625 334.625 452 401 c 0,29,30
 615 544 615 544 784 513 c 1,31,32
 865.719737882 492.335238697 865.719737882 492.335238697 908.201978822 397.167619348 c 128,-1,33
 950.684219762 302 950.684219762 302 894 190 c 0,0,1
815 261 m 1,34,35
 810 285 810 285 781.5 312 c 128,-1,36
 753 339 753 339 708 343 c 128,-1,37
 663 347 663 347 614 337.5 c 128,-1,38
 565 328 565 328 528.5 314 c 128,-1,39
 492 300 492 300 446 272 c 128,-1,40
 400 244 400 244 374 225 c 128,-1,41
 348 206 348 206 302 170 c 128,-1,42
 256 134 256 134 237 120 c 1,43,44
 628 112 628 112 815 261 c 1,34,35
EndSplineSet
EndChar
StartChar: arTah.isol
Encoding: 65552 -1 60
Width: 872
VWidth: 0
GlyphClass: 2
Flags: W
AnchorPoint: "arMarkBelow" 448 -250 basechar 0
AnchorPoint: "arMarkAbove" 537 745 basechar 0
LayerCount: 2
Back
SplineSet
178.36618042 1089 m 2,0,-1
 246 1156.73425293 l 2,1,2
 255.272079468 1166.0201416 255.272079468 1166.0201416 256.618591309 1147 c 0,3,4
 315 353 315 353 261.569335938 165.3203125 c 1,5,6
 517.561035156 448.108123779 517.561035156 448.108123779 740.646484375 448.09375 c 0,7,8
 824.298706055 448.088378906 824.298706055 448.088378906 869.001342773 368.140258789 c 128,-1,9
 913.704040527 288.192138672 913.704040527 288.192138672 874.9140625 200.59375 c 0,10,11
 769.042358398 -37.3474845886 769.042358398 -37.3474845886 326 -52.5833091736 c 1,12,13
 165.513580322 -59.2023048401 165.513580322 -59.2023048401 -1.033203125 -34.6015625 c 1,14,15
 -32.5931930542 -28.4356460571 -32.5931930542 -28.4356460571 -135.59375 92.83984375 c 0,16,17
 -143.783203125 101.002929688 -143.783203125 101.002929688 -141.392578125 108.854003906 c 128,-1,18
 -139.001953125 116.705078125 -139.001953125 116.705078125 -126.438476562 113.904296875 c 0,19,20
 50.4133071899 80.0325546265 50.4133071899 80.0325546265 186.994140625 77.37109375 c 1,21,22
 201 95 201 95 209.508789062 104.353515625 c 1,23,24
 188.53024292 770.848205566 188.53024292 770.848205566 168.320571899 1062 c 0,25,26
 167.221176147 1077.83850098 167.221176147 1077.83850098 178.36618042 1089 c 2,0,-1
691.134765625 321.047851562 m 0,27,28
 480.379882812 322.635742188 480.379882812 322.635742188 230.32421875 73.123046875 c 1,29,30
 655.395507812 67.572265625 655.395507812 67.572265625 808.629882812 215.037109375 c 1,31,32
 792.201171875 320.404296875 792.201171875 320.404296875 691.134765625 321.047851562 c 0,27,28
EndSplineSet
Fore
SplineSet
894 170 m 1,0,1
 779 -56 779 -56 364 -78 c 0,2,3
 165 -89 165 -89 1 -60 c 0,4,5
 -18 -57 -18 -57 -72 -0.5 c 128,-1,6
 -126 56 -126 56 -156 99 c 1,7,8
 -165 115 -165 115 -156.5 121.5 c 128,-1,9
 -148 128 -148 128 -132 125 c 0,10,11
 73 89 73 89 181 85 c 1,12,13
 195 99 195 99 193 106 c 1,14,15
 182 465 182 465 164.5 764 c 128,-1,16
 147 1063 147 1063 148 1068 c 128,-1,17
 149 1073 149 1073 152 1077.5 c 128,-1,18
 155 1082 155 1082 157 1084.5 c 128,-1,19
 159 1087 159 1087 165.5 1093 c 128,-1,20
 172 1099 172 1099 194 1119 c 128,-1,21
 216 1139 216 1139 241.5 1165 c 128,-1,22
 267 1191 267 1191 270 1151 c 0,23,24
 303 683 303 683 295 404 c 0,25,26
 294 361 294 361 276 194 c 1,27,28
 280 198 280 198 333 250 c 0,29,30
 385 302 385 302 452 361 c 0,31,32
 615 504 615 504 784 473 c 1,33,34
 871 451 871 451 908.5 356.5 c 128,-1,35
 946 262 946 262 894 170 c 1,0,1
815 221 m 1,36,37
 810 245 810 245 781.5 272 c 128,-1,38
 753 299 753 299 708 303 c 128,-1,39
 663 307 663 307 614 297.5 c 128,-1,40
 565 288 565 288 528.5 274 c 128,-1,41
 492 260 492 260 446 232 c 128,-1,42
 400 204 400 204 374 185 c 128,-1,43
 348 166 348 166 302 130 c 128,-1,44
 256 94 256 94 237 80 c 1,45,46
 628 72 628 72 815 221 c 1,36,37
EndSplineSet
EndChar
StartChar: arTah.mark
Encoding: 65584 -1 123
Width: 872
VWidth: 0
GlyphClass: 4
Flags: W
AnchorPoint: "arMarkAbove" 438 0 mark 0
LayerCount: 2
Back
SplineSet
404.352539062 357.942382812 m 1,0,1
 413.635742188 161.901367188 413.635742188 161.901367188 397.770507812 103.588867188 c 1,2,3
 494.520507812 229.4765625 494.520507812 229.4765625 579.401367188 226.698242188 c 0,4,5
 620.54296875 225.3515625 620.54296875 225.3515625 635.142578125 188.166015625 c 1,6,7
 656.362304688 139.698242188 656.362304688 139.698242188 633.108398438 92.6982421875 c 0,8,9
 603.208984375 32.265625 603.208984375 32.265625 543.54296875 5.7392578125 c 0,10,11
 450.504882812 -35.6240234375 450.504882812 -35.6240234375 282.729492188 -6.3798828125 c 0,12,13
 265.990234375 -3.4619140625 265.990234375 -3.4619140625 228.905273438 64.5966796875 c 0,14,15
 223.172851562 75.1162109375 223.172851562 75.1162109375 232.567382812 73.0224609375 c 0,16,17
 288.271484375 61.3056640625 288.271484375 61.3056640625 353.940429688 58.4091796875 c 1,18,-1
 346.93359375 324.508789062 l 1,19,-1
 404.352539062 357.942382812 l 1,0,1
559.596679688 155.879882812 m 0,20,21
 475.294921875 156.515625 475.294921875 156.515625 375.272460938 56.7099609375 c 1,22,23
 545.301757812 54.490234375 545.301757812 54.490234375 606.594726562 113.475585938 c 1,24,25
 600.0234375 155.623046875 600.0234375 155.623046875 559.596679688 155.879882812 c 0,20,21
EndSplineSet
Fore
SplineSet
337 62 m 1,0,-1
 330 340 l 1,1,2
 349 351 349 351 369 364 c 128,-1,3
 389 377 389 377 408 389 c 1,4,5
 418 221 418 221 408 126 c 1,6,7
 519 250 519 250 571 252.5 c 128,-1,8
 623 255 623 255 640.5 229 c 128,-1,9
 658 203 658 203 661 173 c 128,-1,10
 664 143 664 143 636 84 c 1,11,12
 588 -8 588 -8 503 -25 c 1,13,14
 461 -35 461 -35 394.5 -34 c 128,-1,15
 328 -33 328 -33 279 -21 c 0,16,17
 271 -19 271 -19 241 30 c 128,-1,18
 211 79 211 79 224 79 c 0,19,20
 225 79 225 79 259 72.5 c 128,-1,21
 293 66 293 66 337 62 c 1,0,-1
376 61 m 1,22,23
 479 56 479 56 563 90 c 0,24,25
 594 102 594 102 609 117 c 1,26,27
 609 156 609 156 547 155 c 0,28,29
 516 154 516 154 461 124.5 c 128,-1,30
 406 95 406 95 376 61 c 1,22,23
EndSplineSet
EndChar
StartChar: arWaw.isol
Encoding: 65561 -1 69
Width: 872
VWidth: 0
GlyphClass: 2
Flags: W
AnchorPoint: "arMarkAbove" 671 600 basechar 0
AnchorPoint: "arMarkBelow" 672 -640 basechar 0
LayerCount: 2
Back
SplineSet
507.24609375 187.342773438 m 0,0,1
 592.997070312 429.326171875 592.997070312 429.326171875 737.181152344 388.107910156 c 128,-1,2
 881.365234375 346.889648438 881.365234375 346.889648438 868.126953125 64.5634765625 c 1,3,4
 835.5 -288.884765625 835.5 -288.884765625 574.448242188 -425.120117188 c 0,5,6
 411.384765625 -510.209960938 411.384765625 -510.209960938 83.416015625 -320.180664062 c 0,7,8
 57.8955078125 -305.024414062 57.8955078125 -305.024414062 65.705078125 -289.861816406 c 128,-1,9
 73.5146484375 -274.69921875 73.5146484375 -274.69921875 97.6689453125 -281.568359375 c 0,10,11
 260.979492188 -327.161132812 260.979492188 -327.161132812 400.528320312 -315.099609375 c 0,12,13
 630.899414062 -295.20703125 630.899414062 -295.20703125 758.037109375 -78.2724609375 c 1,14,15
 794.239257812 6.2763671875 794.239257812 6.2763671875 774.67578125 60.7158203125 c 1,16,17
 693.428710938 -56.994140625 693.428710938 -56.994140625 575.7734375 -5.2333984375 c 128,-1,18
 458.118164062 46.52734375 458.118164062 46.52734375 507.24609375 187.342773438 c 0,0,1
767.192382812 153.57421875 m 1,19,20
 751.484375 240.010742188 751.484375 240.010742188 689.485351562 258.1875 c 128,-1,21
 627.486328125 276.364257812 627.486328125 276.364257812 582.1484375 199.458007812 c 1,22,23
 576.760742188 168.248046875 576.760742188 168.248046875 601.581542969 140.483398438 c 128,-1,24
 626.40234375 112.71875 626.40234375 112.71875 673.375488281 112.143066406 c 128,-1,25
 720.348632812 111.567382812 720.348632812 111.567382812 767.192382812 153.57421875 c 1,19,20
EndSplineSet
Fore
SplineSet
774 56 m 1,0,1
 686 -106 686 -106 543 -22 c 0,2,3
 508 -1 508 -1 478 44 c 0,4,5
 424 128 424 128 537 321 c 1,6,7
 585 395 585 395 640 413 c 0,8,9
 749 449 749 449 823 361 c 1,10,11
 857 316 857 316 871.5 212.5 c 128,-1,12
 886 109 886 109 865 -33.5 c 128,-1,13
 844 -176 844 -176 779 -272 c 1,14,15
 680 -413 680 -413 547 -463 c 1,16,17
 439 -499 439 -499 280 -431 c 128,-1,18
 121 -363 121 -363 63 -316 c 1,19,20
 47 -298 47 -298 50.5 -291 c 128,-1,21
 54 -284 54 -284 58 -279 c 1,22,23
 73 -269 73 -269 87.5 -271.5 c 128,-1,24
 102 -274 102 -274 153 -287.5 c 128,-1,25
 204 -301 204 -301 298.5 -304 c 128,-1,26
 393 -307 393 -307 471 -290 c 128,-1,27
 549 -273 549 -273 624 -216 c 128,-1,28
 699 -159 699 -159 740 -100 c 1,29,30
 787 -22 787 -22 774 56 c 1,0,1
766 154 m 1,31,32
 755 208 755 208 723 237.5 c 128,-1,33
 691 267 691 267 651 258 c 128,-1,34
 611 249 611 249 581 198 c 1,35,36
 584 160 584 160 607.5 138.5 c 128,-1,37
 631 117 631 117 660 115 c 0,38,39
 730 109 730 109 766 154 c 1,31,32
EndSplineSet
EndChar
StartChar: arYeh.isol
Encoding: 65562 -1 70
Width: 872
VWidth: 0
GlyphClass: 2
Flags: W
AnchorPoint: "arMarkBelow" 346 -512 basechar 0
AnchorPoint: "arMarkAbove" 351 483 basechar 0
LayerCount: 2
Back
SplineSet
617.296875 301.536132812 m 0,0,1
 612.192382812 285.725585938 612.192382812 285.725585938 624.602539062 272.15234375 c 0,2,3
 643.837280273 251.116455078 643.837280273 251.116455078 722.7265625 225.834960938 c 0,4,5
 833.461853027 190.346694946 833.461853027 190.346694946 862.1015625 178.401367188 c 1,6,7
 996.170166016 117.209465027 996.170166016 117.209465027 865.690429688 -53.087890625 c 0,8,9
 636.249816895 -352.545288086 636.249816895 -352.545288086 321.607421875 -352.258789062 c 0,10,11
 33.5803833008 -351.987457275 33.5803833008 -351.987457275 -17.64453125 -165.866210938 c 0,12,13
 -81.5983352661 63.7718086243 -81.5983352661 63.7718086243 48.6591796875 344.294921875 c 0,14,15
 63.3322372437 375.894866943 63.3322372437 375.894866943 89.44921875 363.612304688 c 0,16,17
 111.177757263 353.393585205 111.177757263 353.393585205 97.072265625 319.846679688 c 0,18,19
 26.3726081848 156.700836182 26.3726081848 156.700836182 33.8246917725 43.2560119629 c 0,20,21
 43.2247314453 -85.7113113403 43.2247314453 -85.7113113403 117.125 -139.028320312 c 0,22,23
 237.003234863 -224.001144409 237.003234863 -224.001144409 465.83984375 -184.70703125 c 0,24,25
 665.629943848 -150.743988037 665.629943848 -150.743988037 810.890625 12.5810546875 c 1,26,27
 776.409240723 37.4581336975 776.409240723 37.4581336975 634 85.5 c 0,28,29
 506.656921387 128.459274292 506.656921387 128.459274292 538.6640625 231.282226562 c 0,30,31
 594.812744141 412.384887695 594.812744141 412.384887695 701.982421875 529.360351562 c 0,32,33
 818.415649414 656.446960449 818.415649414 656.446960449 920.680664062 626.584960938 c 0,34,35
 994.168640137 605.126037598 994.168640137 605.126037598 907.368164062 505.129882812 c 0,36,37
 881.010742188 474.766601562 881.010742188 474.766601562 860.563476562 481.990234375 c 0,38,39
 786.948486328 511.880249023 786.948486328 511.880249023 685.161132812 406.88671875 c 0,40,41
 634.40814209 354.53616333 634.40814209 354.53616333 617.296875 301.536132812 c 0,0,1
EndSplineSet
Fore
SplineSet
802 -157 m 1,0,1
 657 -309 657 -309 507 -356 c 0,2,3
 420 -383 420 -383 297 -382.5 c 128,-1,4
 174 -382 174 -382 78 -332 c 128,-1,5
 -18 -282 -18 -282 -40 -142 c 1,6,7
 -59 39 -59 39 -2 231 c 1,8,9
 22 305 22 305 42.5 345 c 128,-1,10
 63 385 63 385 85.5 381.5 c 128,-1,11
 108 378 108 378 106.5 354.5 c 128,-1,12
 105 331 105 331 88.5 295 c 128,-1,13
 72 259 72 259 62 224 c 1,14,15
 27 118 27 118 55 -8 c 0,16,17
 62 -40 62 -40 87 -75 c 0,18,19
 155 -168 155 -168 314 -174 c 128,-1,20
 473 -180 473 -180 608.5 -117.5 c 128,-1,21
 744 -55 744 -55 802 5 c 1,22,23
 753 29 753 29 686 54 c 128,-1,24
 619 79 619 79 589 91 c 0,25,26
 491 130 491 130 547 280 c 0,27,28
 557 306 557 306 557 308 c 0,29,30
 631 499 631 499 764 606 c 0,31,32
 834 662 834 662 914 658 c 0,33,34
 956 656 956 656 972 628.5 c 128,-1,35
 988 601 988 601 967 565.5 c 128,-1,36
 946 530 946 530 914.5 492.5 c 128,-1,37
 883 455 883 455 870.5 454 c 128,-1,38
 858 453 858 453 837 458 c 0,39,40
 784 471 784 471 674 377 c 0,41,42
 638 346 638 346 621 301 c 1,43,44
 627 284 627 284 747 246.5 c 128,-1,45
 867 209 867 209 895 194.5 c 128,-1,46
 923 180 923 180 940.5 145 c 128,-1,47
 958 110 958 110 942 64 c 0,48,49
 902 -48 902 -48 802 -157 c 1,0,1
EndSplineSet
EndChar
StartChar: arYeh.isol2
Encoding: 65589 -1 135
Width: 872
GlyphClass: 2
Flags: W
AnchorPoint: "arMarkBelow" 582 -214 basechar 0
AnchorPoint: "arMarkAbove" 512 838 basechar 0
LayerCount: 2
Back
SplineSet
106.099609375 292.400390625 m 0,0,1
 142.099609375 323.599609375 142.099609375 323.599609375 243.699707031 364 c 128,-1,2
 345.299804688 404.400390625 345.299804688 404.400390625 386.100097656 435.600097656 c 128,-1,3
 426.900390625 466.799804688 426.900390625 466.799804688 461.299804688 534 c 0,4,5
 549.908203125 708.823242188 549.908203125 708.823242188 621.299804688 705.200195312 c 0,6,7
 717.40625 700.323242188 717.40625 700.323242188 658.5 406.799804688 c 0,8,9
 652.479492188 376.799804688 652.479492188 376.799804688 632.30078125 375.799804688 c 1,10,11
 606.900390625 375.799804688 606.900390625 375.799804688 606.900390625 405.200195312 c 0,12,13
 606.900390625 656.906738281 606.900390625 656.906738281 496.5 488.400390625 c 0,14,15
 487.700195312 474.799804688 487.700195312 474.799804688 452.5 417.199707031 c 128,-1,16
 417.299804688 359.599609375 417.299804688 359.599609375 378.100097656 320 c 128,-1,17
 338.900390625 280.400390625 338.900390625 280.400390625 238.03994751 238.203582764 c 128,-1,18
 137.179504395 196.006759644 137.179504395 196.006759644 111.431274414 179.886749268 c 0,19,20
 36.799571991 133.162643433 36.799571991 133.162643433 93.4312744141 91.1507797241 c 1,21,22
 214.608154297 4.65583229065 214.608154297 4.65583229065 462.544189453 3.98595452309 c 128,-1,23
 710.480224609 3.31607675552 710.480224609 3.31607675552 831.7109375 51.353515625 c 0,24,25
 869.379760742 65.6014709473 869.379760742 65.6014709473 865.45703125 18.8203125 c 0,26,27
 857.754882812 -81.353515625 857.754882812 -81.353515625 764.505859375 -100.399414062 c 0,28,29
 551.03515625 -144 551.03515625 -144 324.2421875 -120.935546875 c 0,30,31
 187.092575073 -106.471557617 187.092575073 -106.471557617 79.181640625 -50.30078125 c 0,32,33
 8.4173374176 -13.4659042358 8.4173374176 -13.4659042358 -1.818359375 45.69921875 c 0,34,35
 -24.0717639923 179.588027954 -24.0717639923 179.588027954 106.099609375 292.400390625 c 0,0,1
EndSplineSet
Fore
SplineSet
673 404 m 1,0,1
 658 355 658 355 633 356 c 24,2,3
 601 357 601 357 598 406 c 0,4,5
 583 632 583 632 503 471 c 1,6,7
 420 317 420 317 379 282.5 c 128,-1,8
 338 248 338 248 308 234 c 0,9,10
 277 219 277 219 245 206 c 128,-1,11
 213 193 213 193 202 188 c 128,-1,12
 191 183 191 183 140.5 164.5 c 128,-1,13
 90 146 90 146 69 126 c 1,14,15
 154 40 154 40 404.5 32.5 c 128,-1,16
 655 25 655 25 797 67 c 0,17,18
 855 85 855 85 862.5 76 c 128,-1,19
 870 67 870 67 868 22 c 128,-1,20
 866 -23 866 -23 851.5 -54.5 c 128,-1,21
 837 -86 837 -86 822.5 -99.5 c 128,-1,22
 808 -113 808 -113 765 -125 c 1,23,24
 626 -153 626 -153 444 -151.5 c 128,-1,25
 262 -150 262 -150 134 -101 c 0,26,27
 129 -100 129 -100 111.5 -93 c 128,-1,28
 94 -86 94 -86 69.5 -76 c 128,-1,29
 45 -66 45 -66 13.5 -30 c 128,-1,30
 -18 6 -18 6 -12 86 c 128,-1,31
 -6 166 -6 166 15 203 c 0,32,33
 77 311 77 311 266 382 c 0,34,35
 295 392 295 392 327 405 c 0,36,37
 400 434 400 434 448 527 c 0,38,39
 556 734 556 734 636 723 c 0,40,41
 724 710 724 710 673 404 c 1,0,1
EndSplineSet
EndChar
StartChar: uni06F4.urd
Encoding: 65594 -1 143
Width: 872
VWidth: 0
GlyphClass: 2
Flags: W
LayerCount: 2
Back
SplineSet
179.538085938 883.090820312 m 0,0,1
 123.282356262 751.933837891 123.282356262 751.933837891 181.010742188 621.090820312 c 0,2,3
 337.126953125 267.249023438 337.126953125 267.249023438 376.458984375 38.1962890625 c 0,4,5
 388.908203125 -34.3037109375 388.908203125 -34.3037109375 408.700195312 -33.1015625 c 0,6,7
 432.911132812 -31.6298828125 432.911132812 -31.6298828125 438.260742188 38.2255859375 c 0,8,9
 463.529296875 359.590820312 463.529296875 359.590820312 267.85546875 782.385742188 c 1,10,11
 356.135742188 873.779541016 356.135742188 873.779541016 480.348632812 698 c 0,12,13
 497.124206543 674.260070801 497.124206543 674.260070801 505.82723999 674.501098633 c 128,-1,14
 514.530273438 674.7421875 514.530273438 674.7421875 530.784179688 703.090820312 c 0,15,16
 572.451171875 778.637390137 572.451171875 778.637390137 688.848632812 895.5 c 0,17,18
 695.629577637 902.308044434 695.629577637 902.308044434 698.848632812 923.5 c 2,19,-1
 716.848632812 1042 l 1,20,21
 720.124633789 1073.60070801 720.124633789 1073.60070801 687.123046875 1045.86621094 c 0,22,23
 575.538391113 952.090576172 575.538391113 952.090576172 524.538085938 826.090820312 c 1,24,25
 418.508575439 979.97454834 418.508575439 979.97454834 302.538085938 974.1328125 c 0,26,27
 215.86026001 970.060180664 215.86026001 970.060180664 179.538085938 883.090820312 c 0,0,1
EndSplineSet
Fore
SplineSet
370 -21 m 1,0,1
 275 335 275 335 149 642 c 1,2,3
 124 715 124 715 134.5 801.5 c 128,-1,4
 145 888 145 888 174 928 c 0,5,6
 228 1004 228 1004 306 1004 c 1,7,8
 358 1005 358 1005 385 984.5 c 128,-1,9
 412 964 412 964 431 946.5 c 128,-1,10
 450 929 450 929 486 879.5 c 128,-1,11
 522 830 522 830 523 828 c 1,12,13
 529 840 529 840 554 890 c 0,14,15
 629 1042 629 1042 692 1085 c 1,16,17
 707 1093 707 1093 716.5 1085 c 128,-1,18
 726 1077 726 1077 726 1061 c 1,19,20
 702 873 702 873 695 864 c 1,21,22
 679 847 679 847 653 815 c 1,23,24
 580 737 580 737 536 662 c 1,25,26
 512 637 512 637 496.5 646.5 c 128,-1,27
 481 656 481 656 472.5 666.5 c 128,-1,28
 464 677 464 677 453 688.5 c 128,-1,29
 442 700 442 700 439 704 c 0,30,31
 385 773 385 773 341 786.5 c 128,-1,32
 297 800 297 800 270 782 c 1,33,34
 409 476 409 476 438 282 c 0,35,36
 451 188 451 188 445.5 102 c 128,-1,37
 440 16 440 16 429 -24 c 1,38,39
 395 -101 395 -101 370 -21 c 1,0,1
EndSplineSet
EndChar
StartChar: uni06F7.urd
Encoding: 65595 -1 145
Width: 872
VWidth: 0
GlyphClass: 2
Flags: W
LayerCount: 2
Back
SplineSet
585.2578125 -40.9697265625 m 1,0,1
 556.168945312 -59.9248046875 556.168945312 -59.9248046875 536.416992188 -53.2783203125 c 0,2,3
 442.779296875 -21.7734375 442.779296875 -21.7734375 166.247070312 -21.740234375 c 0,4,5
 120.834960938 -21.7353515625 120.834960938 -21.7353515625 133.697265625 18.2236328125 c 0,6,7
 317.268554688 580.603515625 317.268554688 580.603515625 232.133789062 845.30859375 c 0,8,9
 225.625 865.546875 225.625 865.546875 235.653320312 881.248046875 c 2,10,-1
 311.735351562 1000.36914062 l 2,11,12
 331.315429688 1031.02441406 331.315429688 1031.02441406 350.637695312 989.467773438 c 0,13,14
 435.18359375 807.640625 435.18359375 807.640625 379.020507812 540.155273438 c 0,15,16
 320.4765625 261.325195312 320.4765625 261.325195312 252.21484375 97.5888671875 c 1,17,18
 423.145507812 127 423.145507812 127 706.645507812 84.939453125 c 0,19,20
 776.865234375 74.333984375 776.865234375 74.333984375 704.145507812 30.53515625 c 0,21,22
 646.19140625 -4.37109375 646.19140625 -4.37109375 585.2578125 -40.9697265625 c 1,0,1
EndSplineSet
Fore
SplineSet
572 -58 m 1,0,1
 552 -65 552 -65 511 -55 c 128,-1,2
 470 -45 470 -45 438.5 -41 c 128,-1,3
 407 -37 407 -37 356.5 -34.5 c 128,-1,4
 306 -32 306 -32 242 -30.5 c 128,-1,5
 178 -29 178 -29 151 -26.5 c 128,-1,6
 124 -24 124 -24 113.5 -17.5 c 128,-1,7
 103 -11 103 -11 104.5 5 c 128,-1,8
 106 21 106 21 115.5 47 c 128,-1,9
 125 73 125 73 127 82 c 0,10,11
 285 597 285 597 211 837 c 1,12,13
 208 839 208 839 210 845.5 c 128,-1,14
 212 852 212 852 212 854.5 c 128,-1,15
 212 857 212 857 215 864 c 128,-1,16
 218 871 218 871 219.5 874 c 128,-1,17
 221 877 221 877 225 883.5 c 128,-1,18
 229 890 229 890 230.5 892 c 128,-1,19
 232 894 232 894 236 900 c 128,-1,20
 240 906 240 906 245.5 913.5 c 128,-1,21
 251 921 251 921 278.5 965.5 c 128,-1,22
 306 1010 306 1010 317 1022.5 c 128,-1,23
 328 1035 328 1035 331 1037.5 c 128,-1,24
 334 1040 334 1040 336.5 1039.5 c 128,-1,25
 339 1039 339 1039 340.5 1038.5 c 128,-1,26
 342 1038 342 1038 344 1035 c 128,-1,27
 346 1032 346 1032 347.5 1030 c 128,-1,28
 349 1028 349 1028 351.5 1023 c 128,-1,29
 354 1018 354 1018 364 1000 c 128,-1,30
 374 982 374 982 395 914 c 1,31,32
 439 752 439 752 396 545 c 1,33,34
 337 309 337 309 260 119 c 1,35,36
 478 145 478 145 719 109 c 1,37,38
 755 103 755 103 762.5 84.5 c 128,-1,39
 770 66 770 66 732 40 c 0,40,41
 725 35 725 35 690.5 9 c 128,-1,42
 656 -17 656 -17 572 -58 c 1,0,1
EndSplineSet
EndChar
